<?xml version="1.0" encoding="UTF-8" standalone="no"?>
<!-- Created with Inkscape (http://www.inkscape.org/) -->

<svg
   xmlns:dc="http://purl.org/dc/elements/1.1/"
   xmlns:cc="http://creativecommons.org/ns#"
   xmlns:rdf="http://www.w3.org/1999/02/22-rdf-syntax-ns#"
   xmlns:svg="http://www.w3.org/2000/svg"
   xmlns="http://www.w3.org/2000/svg"
   xmlns:xlink="http://www.w3.org/1999/xlink"
   xmlns:sodipodi="http://sodipodi.sourceforge.net/DTD/sodipodi-0.dtd"
   xmlns:inkscape="http://www.inkscape.org/namespaces/inkscape"
   width="211.12192"
   height="167.18028"
   id="svg4035"
   version="1.1"
   inkscape:version="0.48.2 r9819"
   sodipodi:docname="btn_camera_small.svg"
   inkscape:export-filename="C:\Development\Java\Eclipse\Kepler\VirtualBeer\resources\images\btn_camera_small_off.png"
   inkscape:export-xdpi="90"
   inkscape:export-ydpi="90">
  <defs
     id="defs4037">
    <filter
       color-interpolation-filters="sRGB"
       inkscape:collect="always"
       id="filter4007"
       x="-0.099045523"
       width="1.198091"
       y="-0.11308346"
       height="1.2261668">
      <feGaussianBlur
         inkscape:collect="always"
         stdDeviation="12.089505"
         id="feGaussianBlur4009" />
    </filter>
    <linearGradient
       inkscape:collect="always"
       xlink:href="#linearGradient5744"
       id="linearGradient6011"
       gradientUnits="userSpaceOnUse"
       gradientTransform="matrix(0.35708676,0,0,-0.1702379,267.5616,282.58465)"
       x1="211.765"
       y1="-289.60638"
       x2="211.765"
       y2="-427.1001" />
    <linearGradient
       id="linearGradient5744">
      <stop
         style="stop-color:#b3b3b3;stop-opacity:0.8839286;"
         offset="0"
         id="stop5746" />
      <stop
         id="stop5755"
         offset="0.5"
         style="stop-color:#b3b3b3;stop-opacity:0.2767857;" />
      <stop
         style="stop-color:#b3b3b3;stop-opacity:0.09821428;"
         offset="1"
         id="stop5748" />
    </linearGradient>
  </defs>
  <sodipodi:namedview
     id="base"
     pagecolor="#ffffff"
     bordercolor="#666666"
     borderopacity="1.0"
     inkscape:pageopacity="0.0"
     inkscape:pageshadow="2"
     inkscape:zoom="1.979899"
     inkscape:cx="47.626926"
     inkscape:cy="50.58731"
     inkscape:document-units="px"
     inkscape:current-layer="layer1"
     showgrid="false"
     fit-margin-top="0"
     fit-margin-left="0"
     fit-margin-right="0"
     fit-margin-bottom="0"
     inkscape:window-width="1600"
     inkscape:window-height="848"
     inkscape:window-x="-8"
     inkscape:window-y="-8"
     inkscape:window-maximized="1" />
  <metadata
     id="metadata4040">
    <rdf:RDF>
      <cc:Work
         rdf:about="">
        <dc:format>image/svg+xml</dc:format>
        <dc:type
           rdf:resource="http://purl.org/dc/dcmitype/StillImage" />
        <dc:title></dc:title>
      </cc:Work>
    </rdf:RDF>
  </metadata>
  <g
     inkscape:label="Layer 1"
     inkscape:groupmode="layer"
     id="layer1"
     transform="translate(-234.43904,-208.77205)">
    <rect
       style="opacity:0.58397277;fill:#b3b3b3;fill-opacity:1;stroke:none"
       id="rect3766-4"
       width="211.12192"
       height="167.18028"
       x="234.43904"
       y="208.77205"
       ry="20.708128" />
    <path
       style="opacity:0.58397277;fill:#333333;fill-opacity:1;stroke:none"
       d="m 418.01723,212.3125 c -55.7198,1.40771 -111.52515,-0.4669 -167.25,0.96875 -10.80948,2.80051 -14.36252,15.61321 -12.3083,25.43749 0.42045,40.65641 -1.07797,81.40474 0.83955,122.00008 3.45656,10.576 16.29061,12.9331 25.96873,11.2126 55.04779,-0.5331 110.2151,1.0973 165.18752,-0.8689 10.4291,-3.5458 12.90706,-16.3487 11.0541,-26 -0.62959,-40.68325 1.5272,-81.50175 -1.1791,-122.09377 -3.3998,-8.73542 -13.83483,-11.21247 -22.3125,-10.65625 z"
       id="path4602-5"
       inkscape:connector-curvature="0" />
    <path
       style="opacity:0.58397277;fill:#808080;fill-opacity:1;stroke:none"
       d="m 412.11098,214.625 c -53.57164,0.66489 -107.31072,-0.53583 -160.78125,0.59375 -9.53097,2.43489 -12.6807,13.62267 -10.89012,22.28118 0.41474,40.8341 -0.94187,81.74949 0.73387,122.53129 2.97612,9.3112 14.36468,11.4523 22.96874,9.9003 55.05393,-0.3756 110.17815,0.7872 165.18751,-0.619 9.541,-2.8427 11.86026,-14.3848 10.20262,-23.0312 -0.59741,-40.8108 1.31832,-81.8073 -1.01512,-122.50007 -3.81683,-9.25228 -15.15024,-10.21051 -23.7807,-9.18714 -0.87518,0.0103 -1.75037,0.0206 -2.62555,0.0309 z"
       id="rect4594-5"
       inkscape:connector-curvature="0" />
    <path
       style="opacity:0.58397277;fill:#b3b3b3;fill-opacity:1;stroke:none"
       d="m 419.81313,214.40682 c -1.7409,0.0108 -3.44429,0.15045 -5.0625,0.34052 -0.87518,0.01 -1.74982,0.0211 -2.625,0.0309 -53.57164,0.65865 -107.31072,-0.53081 -160.78125,0.58817 -9.53097,2.41201 -12.69683,13.49467 -10.90625,22.07176 0.17841,17.4006 0.0323,34.80961 -0.0625,52.22307 65.92139,-37.927 132.40826,-33.44291 199.28125,0 0.15583,-21.98064 0.14162,-43.93199 -1.125,-65.81284 -3.10117,-7.44681 -11.17486,-9.48857 -18.71875,-9.44163 z"
       id="path4610-1"
       inkscape:connector-curvature="0"
       sodipodi:nodetypes="cccccccccc" />
    <rect
       style="fill:#101010;fill-opacity:1;stroke:none"
       id="rect4973"
       width="144.8752"
       height="51.01239"
       x="267.56161"
       y="280.19687"
       ry="5.0647936" />
    <rect
       style="fill:#101010;fill-opacity:1;stroke:none"
       id="rect4973-8"
       width="144.8752"
       height="58.154133"
       x="267.56161"
       y="250.09953"
       ry="8.960392" />
    <path
       style="fill:#101010;fill-opacity:1;stroke:none"
       d="m 317.86171,228.96255 46.57408,0 c 2.64572,0 3.37754,3.08078 4.77566,5.8164 l 12.56538,24.58601 c 1.39811,2.73561 -14.69532,7.34676 -17.34104,7.34676 l -46.57408,0 c -2.64571,0 -4.77566,-2.59411 -4.77566,-5.81639 l 0,-26.11638 c 0,-3.22229 2.12995,-5.8164 4.77566,-5.8164 z"
       id="rect5548"
       inkscape:connector-curvature="0"
       sodipodi:nodetypes="sssssssss" />
    <path
       sodipodi:nodetypes="sssssssss"
       inkscape:connector-curvature="0"
       id="path5551"
       d="m 361.80062,228.96255 -46.32952,0 c -2.63182,0 -3.3598,3.08078 -4.75057,5.8164 l -12.49941,24.58601 c -1.39077,2.73561 14.61816,7.34676 17.24998,7.34676 l 46.32952,0 c 2.63181,0 4.75056,-2.59411 4.75056,-5.81639 l 0,-26.11638 c 0,-3.22229 -2.11875,-5.8164 -4.75056,-5.8164 z"
       style="fill:#101010;fill-opacity:1;stroke:none" />
    <path
       style="fill:#e63d3d;fill-opacity:1;stroke:none"
       d="m 339.11194,254.28867 c -18.57119,-0.10288 -35.18232,16.75982 -34.92504,35.26176 -0.82836,18.69959 15.64068,36.12208 34.40056,36.32297 18.57844,1.24847 36.26861,-14.53246 37.12587,-33.10863 1.8773,-18.29577 -12.83613,-36.31363 -31.06655,-38.19713 -1.83502,-0.22846 -3.68568,-0.33745 -5.53484,-0.27897 z"
       id="path5569"
       inkscape:connector-curvature="0" />
    <path
       style="fill:#101010;fill-opacity:1;stroke:none"
       d="m 339.58061,259.86815 c -17.00777,-0.0991 -31.99346,16.65863 -29.6382,33.59963 1.69543,16.48968 18.92676,29.85045 35.32927,26.39094 15.06274,-2.67693 26.98767,-18.00307 24.76856,-33.39539 -1.79555,-14.64182 -15.52576,-27.10021 -30.45963,-26.59518 z"
       id="path5575"
       inkscape:connector-curvature="0" />
    <path
       inkscape:connector-curvature="0"
       style="opacity:0.73245616;fill:url(#linearGradient6011);fill-opacity:1;stroke:none"
       d="m 269.97193,331.43529 c -1.33768,0 -2.41033,1.08381 -2.41033,2.4215 l 0,19.48354 c 0,1.33769 1.07265,2.4215 2.41033,2.4215 l 39.01174,0 c 6.21558,-10.49205 17.73242,-17.97881 30.12919,-17.91014 1.84917,-0.0585 3.69983,0.0505 5.53484,0.27898 11.03506,1.1401 20.77692,8.18454 26.33515,17.63116 l 39.03405,0 c 1.33769,0 2.4215,-1.08381 2.4215,-2.4215 l 0,-19.48354 c 0,-1.33769 -1.08381,-2.4215 -2.4215,-2.4215 l -140.04497,0 z"
       id="rect5742" />
    <rect
       style="fill:#e63d3d;fill-opacity:1;stroke:none"
       id="rect3070"
       width="67.680222"
       height="10.101525"
       x="305.65479"
       y="285.05716" />
  </g>
</svg>
