<?xml version="1.0" encoding="UTF-8" standalone="no"?>
<!-- Created with Inkscape (http://www.inkscape.org/) -->

<svg
   xmlns:dc="http://purl.org/dc/elements/1.1/"
   xmlns:cc="http://creativecommons.org/ns#"
   xmlns:rdf="http://www.w3.org/1999/02/22-rdf-syntax-ns#"
   xmlns:svg="http://www.w3.org/2000/svg"
   xmlns="http://www.w3.org/2000/svg"
   xmlns:xlink="http://www.w3.org/1999/xlink"
   xmlns:sodipodi="http://sodipodi.sourceforge.net/DTD/sodipodi-0.dtd"
   xmlns:inkscape="http://www.inkscape.org/namespaces/inkscape"
   width="744.09448819"
   height="1052.3622047"
   id="svg4965"
   version="1.1"
   inkscape:version="0.48.2 r9819"
   sodipodi:docname="icons.svg">
  <defs
     id="defs4967">
    <linearGradient
       id="linearGradient5744">
      <stop
         style="stop-color:#b3b3b3;stop-opacity:0.8839286;"
         offset="0"
         id="stop5746" />
      <stop
         id="stop5755"
         offset="0.5"
         style="stop-color:#b3b3b3;stop-opacity:0.2767857;" />
      <stop
         style="stop-color:#b3b3b3;stop-opacity:0.09821428;"
         offset="1"
         id="stop5748" />
    </linearGradient>
    <inkscape:path-effect
       effect="skeletal"
       id="path-effect5640"
       is_visible="true"
       pattern="M 0,0 0,10 10,5 z"
       copytype="single_stretched"
       prop_scale="1"
       scale_y_rel="false"
       spacing="0"
       normal_offset="0"
       tang_offset="0"
       prop_units="false"
       vertical_pattern="false"
       fuse_tolerance="0" />
    <inkscape:path-effect
       effect="spiro"
       id="path-effect5638"
       is_visible="true" />
    <inkscape:path-effect
       effect="skeletal"
       id="path-effect5608"
       is_visible="true"
       pattern="m -44.69925,-5.3033009 0,10 10,-4.99999997 z"
       copytype="single_stretched"
       prop_scale="1"
       scale_y_rel="false"
       spacing="0"
       normal_offset="0"
       tang_offset="0"
       prop_units="false"
       vertical_pattern="false"
       fuse_tolerance="0" />
    <inkscape:path-effect
       effect="spiro"
       id="path-effect5606"
       is_visible="true" />
    <linearGradient
       inkscape:collect="always"
       xlink:href="#linearGradient5744"
       id="linearGradient5766"
       gradientUnits="userSpaceOnUse"
       gradientTransform="matrix(1,0,0,-0.476741,0,150.16548)"
       x1="211.765"
       y1="-289.60638"
       x2="211.765"
       y2="-427.1001" />
    <filter
       inkscape:collect="always"
       id="filter5770">
      <feGaussianBlur
         inkscape:collect="always"
         stdDeviation="4.3899415"
         id="feGaussianBlur5772" />
    </filter>
    <linearGradient
       inkscape:collect="always"
       xlink:href="#linearGradient5744"
       id="linearGradient5797"
       gradientUnits="userSpaceOnUse"
       gradientTransform="matrix(0.72690411,0,0,-0.34654499,449.17586,109.1559)"
       x1="211.765"
       y1="-289.60638"
       x2="211.765"
       y2="-427.1001" />
    <filter
       inkscape:collect="always"
       id="filter5880">
      <feGaussianBlur
         inkscape:collect="always"
         stdDeviation="5.4952295"
         id="feGaussianBlur5882" />
    </filter>
    <filter
       inkscape:collect="always"
       id="filter5886">
      <feGaussianBlur
         inkscape:collect="always"
         stdDeviation="5.4874269"
         id="feGaussianBlur5888" />
    </filter>
    <linearGradient
       inkscape:collect="always"
       xlink:href="#linearGradient5744"
       id="linearGradient6011"
       gradientUnits="userSpaceOnUse"
       gradientTransform="matrix(0.72690411,0,0,-0.34654499,0,109.1559)"
       x1="211.765"
       y1="-289.60638"
       x2="211.765"
       y2="-427.1001" />
  </defs>
  <sodipodi:namedview
     id="base"
     pagecolor="#ffffff"
     bordercolor="#666666"
     borderopacity="1.0"
     inkscape:pageopacity="0.0"
     inkscape:pageshadow="2"
     inkscape:zoom="0.49497475"
     inkscape:cx="318.09503"
     inkscape:cy="579.9898"
     inkscape:document-units="px"
     inkscape:current-layer="layer1"
     showgrid="false"
     inkscape:window-width="1600"
     inkscape:window-height="848"
     inkscape:window-x="-8"
     inkscape:window-y="-8"
     inkscape:window-maximized="1" />
  <metadata
     id="metadata4970">
    <rdf:RDF>
      <cc:Work
         rdf:about="">
        <dc:format>image/svg+xml</dc:format>
        <dc:type
           rdf:resource="http://purl.org/dc/dcmitype/StillImage" />
        <dc:title></dc:title>
      </cc:Work>
    </rdf:RDF>
  </metadata>
  <g
     inkscape:label="Layer 1"
     inkscape:groupmode="layer"
     id="layer1">
    <g
       id="g6049">
      <path
         style="fill:#e6e6e6;fill-opacity:1;stroke:none;filter:url(#filter5886);opacity:0.7"
         d="m 142.83144,316.93387 99.90114,0.57085 -86.77129,99.33029 77.63748,0 L 75.469508,575.5351 133.12676,447.66165 62.339659,447.09078 z"
         id="path5768"
         inkscape:connector-curvature="0" />
      <path
         inkscape:connector-curvature="0"
         id="path5654"
         d="m 126.83144,300.93387 99.90114,0.57085 -86.77129,99.33029 77.63748,0 L 59.469508,559.5351 117.12676,431.66165 46.339659,431.09078 z"
         style="fill:#1f1f1f;fill-opacity:1;stroke:#000000;stroke-width:2.26050472px;stroke-linecap:butt;stroke-linejoin:miter;stroke-opacity:1" />
    </g>
    <rect
       style="fill:#101010;fill-opacity:1;stroke:none"
       id="rect4973"
       width="294.91537"
       height="103.84344"
       x="0"
       y="104.29517"
       ry="10.310153" />
    <rect
       style="fill:#101010;fill-opacity:1;stroke:none"
       id="rect4973-8"
       width="294.91537"
       height="118.38153"
       x="0"
       y="43.027546"
       ry="18.240232" />
    <path
       style="fill:#101010;fill-opacity:1;stroke:none"
       d="m 102.39348,0 94.80859,0 c 5.38575,0 6.87549,6.2714016 9.72157,11.840156 l 25.57873,50.048547 c 2.84607,5.568747 -29.91455,14.955449 -35.3003,14.955449 l -94.80859,0 c -5.38575,0 -9.721565,-5.280711 -9.721565,-11.840149 l 0,-53.163847 C 92.671915,5.2807112 97.00773,0 102.39348,0 z"
       id="rect5548"
       inkscape:connector-curvature="0"
       sodipodi:nodetypes="sssssssss" />
    <path
       sodipodi:nodetypes="sssssssss"
       inkscape:connector-curvature="0"
       id="path5551"
       d="M 191.83777,0 97.527038,0 C 92.169566,0 90.687655,6.2714016 87.856524,11.840156 L 62.4121,61.888703 c -2.831131,5.568747 29.757466,14.955449 35.114938,14.955449 l 94.310732,0 c 5.35746,0 9.6705,-5.280711 9.6705,-11.840149 l 0,-53.163847 C 201.50827,5.2807112 197.19523,0 191.83777,0 z"
       style="fill:#101010;fill-opacity:1;stroke:none" />
    <path
       style="fill:#fcfcfc;fill-opacity:1;stroke:none"
       d="M 145.65153,51.555143 C 107.84708,51.34573 74.032603,85.672286 74.55633,123.3358 c -1.686243,38.06584 31.83897,73.53195 70.02756,73.9409 37.81921,2.54145 73.83023,-29.58302 75.57531,-67.39764 3.82153,-37.243789 -26.12988,-73.921873 -63.24066,-77.756023 -3.73545,-0.465066 -7.50275,-0.686939 -11.26701,-0.567894 z"
       id="path5569"
       inkscape:connector-curvature="0" />
    <path
       style="fill:#101010;fill-opacity:1;stroke:none"
       d="m 146.60559,62.91302 c -34.6219,-0.201752 -65.127519,33.911174 -60.333041,68.39713 3.451312,33.56724 38.528281,60.7651 71.918071,53.72276 30.66248,-5.44931 54.93748,-36.64799 50.42015,-67.98138 -3.65511,-29.805635 -31.60503,-55.166578 -62.00518,-54.13851 z"
       id="path5575"
       inkscape:connector-curvature="0" />
    <path
       inkscape:connector-curvature="0"
       style="opacity:0.73245616;fill:url(#linearGradient6011);fill-opacity:1;stroke:none"
       d="M 4.9066027,208.59876 C 2.1835417,208.59876 0,210.80502 0,213.52808 l 0,39.66171 c 0,2.72306 2.1835417,4.92932 4.9066027,4.92932 l 79.4142743,0 c 12.652762,-21.35815 36.097043,-36.59858 61.332533,-36.45879 3.76427,-0.11904 7.53156,0.10283 11.26701,0.5679 22.46352,2.32084 42.29455,16.66086 53.60918,35.89089 l 79.45971,0 c 2.72306,0 4.92932,-2.20626 4.92932,-4.92932 l 0,-39.66171 c 0,-2.72306 -2.20626,-4.92932 -4.92932,-4.92932 l -285.0827073,0 z"
       id="rect5742" />
    <g
       id="g6029">
      <rect
         style="fill:#101010;fill-opacity:1;stroke:none"
         id="rect5780"
         width="294.91537"
         height="103.84344"
         x="449.17587"
         y="104.29517"
         ry="10.310153" />
      <rect
         style="fill:#101010;fill-opacity:1;stroke:none"
         id="rect5782"
         width="294.91537"
         height="118.38153"
         x="449.17587"
         y="43.027546"
         ry="18.240232" />
      <path
         style="fill:#101010;fill-opacity:1;stroke:none"
         d="m 551.56934,0 94.80859,0 c 5.38575,0 6.87549,6.2714016 9.72157,11.840156 l 25.57873,50.048547 c 2.84607,5.568747 -29.91455,14.955449 -35.3003,14.955449 l -94.80859,0 c -5.38575,0 -9.72157,-5.280711 -9.72157,-11.840149 l 0,-53.163847 C 541.84777,5.2807112 546.18359,0 551.56934,0 z"
         id="path5784"
         inkscape:connector-curvature="0"
         sodipodi:nodetypes="sssssssss" />
      <path
         sodipodi:nodetypes="sssssssss"
         inkscape:connector-curvature="0"
         id="path5786"
         d="M 641.01363,0 546.7029,0 c -5.35747,0 -6.83938,6.2714016 -9.67052,11.840156 l -25.44442,50.048547 c -2.83113,5.568747 29.75747,14.955449 35.11494,14.955449 l 94.31073,0 c 5.35746,0 9.6705,-5.280711 9.6705,-11.840149 l 0,-53.163847 C 650.68413,5.2807112 646.37109,0 641.01363,0 z"
         style="fill:#101010;fill-opacity:1;stroke:none" />
      <path
         inkscape:connector-curvature="0"
         id="path5788"
         d="m 592.78125,49.5 c -41.70513,1.04773 -76.95125,42.647426 -70.71875,84.0625 4.33571,40.22203 45.5664,72.27407 85.5517,65.1972 39.08256,-5.44819 69.97753,-45.21507 63.42016,-84.50224 C 666.20755,77.124015 630.61524,46.518086 592.78125,49.5 z"
         style="fill:#e63d3d;fill-opacity:1;stroke:none" />
      <path
         style="fill:#101010;fill-opacity:1;stroke:none"
         d="m 595.78145,62.91302 c -34.6219,-0.201752 -65.12752,33.911174 -60.33304,68.39713 3.45131,33.56724 38.52828,60.7651 71.91807,53.72276 30.66248,-5.44931 54.93748,-36.64799 50.42015,-67.98138 C 654.13152,87.245895 626.1816,61.884952 595.78145,62.91302 z"
         id="path5790"
         inkscape:connector-curvature="0" />
      <path
         inkscape:connector-curvature="0"
         style="opacity:0.7;fill:url(#linearGradient5797);fill-opacity:1;stroke:none"
         d="m 454.08246,208.59876 c -2.72306,0 -4.9066,2.20626 -4.9066,4.92932 l 0,39.66171 c 0,2.72306 2.18354,4.92932 4.9066,4.92932 l 79.41428,0 c 12.65276,-21.35815 36.09704,-36.59858 61.33253,-36.45879 3.76427,-0.11904 7.53156,0.10283 11.26701,0.5679 22.46352,2.32084 42.29455,16.66086 53.60918,35.89089 l 79.45971,0 c 2.72306,0 4.92932,-2.20626 4.92932,-4.92932 l 0,-39.66171 c 0,-2.72306 -2.20626,-4.92932 -4.92932,-4.92932 l -285.08271,0 z"
         id="path5792" />
      <rect
         transform="matrix(0.71041335,0.70378468,-0.70378468,0.71041335,0,0)"
         ry="6.7619271"
         y="-340.43942"
         x="437.12329"
         height="18.182747"
         width="141.42134"
         id="rect5809"
         style="fill:#e63d3d;fill-opacity:1;stroke:none" />
    </g>
    <g
       id="g6039">
      <g
         transform="translate(0,16)"
         style="fill:#e6e6e6;filter:url(#filter5880);opacity:0.7"
         id="g5852">
        <rect
           ry="6.7619271"
           y="508.90009"
           x="416.18286"
           height="56.568542"
           width="290.92392"
           id="rect5854"
           style="fill:#e6e6e6;fill-opacity:1;stroke:none" />
        <rect
           ry="6.7619271"
           y="608.90515"
           x="416.18286"
           height="56.568542"
           width="290.92392"
           id="rect5856"
           style="fill:#e6e6e6;fill-opacity:1;stroke:none" />
        <rect
           ry="6.7619271"
           y="708.91028"
           x="418.20316"
           height="56.568542"
           width="290.92392"
           id="rect5858"
           style="fill:#e6e6e6;fill-opacity:1;stroke:none" />
      </g>
      <g
         id="g5847">
        <rect
           style="fill:#101010;fill-opacity:1;stroke:none"
           id="rect5813-7"
           width="290.92392"
           height="56.568542"
           x="416.18286"
           y="508.90009"
           ry="6.7619271" />
        <rect
           style="fill:#101010;fill-opacity:1;stroke:none"
           id="rect5813-4"
           width="290.92392"
           height="56.568542"
           x="416.18286"
           y="608.90515"
           ry="6.7619271" />
        <rect
           style="fill:#101010;fill-opacity:1;stroke:none"
           id="rect5813-2"
           width="290.92392"
           height="56.568542"
           x="418.20316"
           y="708.91028"
           ry="6.7619271" />
      </g>
    </g>
  </g>
</svg>
