<?xml version="1.0" encoding="UTF-8" standalone="no"?>
<!-- Created with Inkscape (http://www.inkscape.org/) -->

<svg
   xmlns:dc="http://purl.org/dc/elements/1.1/"
   xmlns:cc="http://creativecommons.org/ns#"
   xmlns:rdf="http://www.w3.org/1999/02/22-rdf-syntax-ns#"
   xmlns:svg="http://www.w3.org/2000/svg"
   xmlns="http://www.w3.org/2000/svg"
   xmlns:sodipodi="http://sodipodi.sourceforge.net/DTD/sodipodi-0.dtd"
   xmlns:inkscape="http://www.inkscape.org/namespaces/inkscape"
   width="211.12192"
   height="167.18028"
   id="svg4035"
   version="1.1"
   inkscape:version="0.48.2 r9819"
   sodipodi:docname="btn_menu.svg"
   inkscape:export-filename="C:\Development\Java\Eclipse\Kepler\VirtualBeer\resources\images\btn_menu.png"
   inkscape:export-xdpi="90"
   inkscape:export-ydpi="90">
  <defs
     id="defs4037">
    <filter
       color-interpolation-filters="sRGB"
       inkscape:collect="always"
       id="filter4007"
       x="-0.099045523"
       width="1.198091"
       y="-0.11308346"
       height="1.2261668">
      <feGaussianBlur
         inkscape:collect="always"
         stdDeviation="12.089505"
         id="feGaussianBlur4009" />
    </filter>
  </defs>
  <sodipodi:namedview
     id="base"
     pagecolor="#ffffff"
     bordercolor="#666666"
     borderopacity="1.0"
     inkscape:pageopacity="0.0"
     inkscape:pageshadow="2"
     inkscape:zoom="0.35"
     inkscape:cx="140.56096"
     inkscape:cy="-180.69557"
     inkscape:document-units="px"
     inkscape:current-layer="layer1"
     showgrid="false"
     fit-margin-top="0"
     fit-margin-left="0"
     fit-margin-right="0"
     fit-margin-bottom="0"
     inkscape:window-width="1600"
     inkscape:window-height="848"
     inkscape:window-x="-8"
     inkscape:window-y="-8"
     inkscape:window-maximized="1" />
  <metadata
     id="metadata4040">
    <rdf:RDF>
      <cc:Work
         rdf:about="">
        <dc:format>image/svg+xml</dc:format>
        <dc:type
           rdf:resource="http://purl.org/dc/dcmitype/StillImage" />
        <dc:title></dc:title>
      </cc:Work>
    </rdf:RDF>
  </metadata>
  <g
     inkscape:label="Layer 1"
     inkscape:groupmode="layer"
     id="layer1"
     transform="translate(-234.43904,-208.77205)">
    <rect
       style="opacity:0.58397277;fill:#b3b3b3;fill-opacity:1;stroke:none"
       id="rect3766-4"
       width="211.12192"
       height="167.18028"
       x="234.43904"
       y="208.77205"
       ry="20.708128" />
    <path
       style="opacity:0.58397277;fill:#333333;fill-opacity:1;stroke:none"
       d="m 418.01723,212.3125 c -55.7198,1.40771 -111.52515,-0.4669 -167.25,0.96875 -10.80948,2.80051 -14.36252,15.61321 -12.3083,25.43749 0.42045,40.65641 -1.07797,81.40474 0.83955,122.00008 3.45656,10.576 16.29061,12.9331 25.96873,11.2126 55.04779,-0.5331 110.2151,1.0973 165.18752,-0.8689 10.4291,-3.5458 12.90706,-16.3487 11.0541,-26 -0.62959,-40.68325 1.5272,-81.50175 -1.1791,-122.09377 -3.3998,-8.73542 -13.83483,-11.21247 -22.3125,-10.65625 z"
       id="path4602-5"
       inkscape:connector-curvature="0" />
    <path
       style="opacity:0.58397277;fill:#808080;fill-opacity:1;stroke:none"
       d="m 412.11098,214.625 c -53.57164,0.66489 -107.31072,-0.53583 -160.78125,0.59375 -9.53097,2.43489 -12.6807,13.62267 -10.89012,22.28118 0.41474,40.8341 -0.94187,81.74949 0.73387,122.53129 2.97612,9.3112 14.36468,11.4523 22.96874,9.9003 55.05393,-0.3756 110.17815,0.7872 165.18751,-0.619 9.541,-2.8427 11.86026,-14.3848 10.20262,-23.0312 -0.59741,-40.8108 1.31832,-81.8073 -1.01512,-122.50007 -3.81683,-9.25228 -15.15024,-10.21051 -23.7807,-9.18714 -0.87518,0.0103 -1.75037,0.0206 -2.62555,0.0309 z"
       id="rect4594-5"
       inkscape:connector-curvature="0" />
    <path
       style="opacity:0.58397277;fill:#b3b3b3;fill-opacity:1;stroke:none"
       d="m 419.81313,214.40682 c -1.7409,0.0108 -3.44429,0.15045 -5.0625,0.34052 -0.87518,0.01 -1.74982,0.0211 -2.625,0.0309 -53.57164,0.65865 -107.31072,-0.53081 -160.78125,0.58817 -9.53097,2.41201 -12.69683,13.49467 -10.90625,22.07176 0.17841,17.4006 0.0323,34.80961 -0.0625,52.22307 65.92139,-37.927 132.40826,-33.44291 199.28125,0 0.15583,-21.98064 0.14162,-43.93199 -1.125,-65.81284 -3.10117,-7.44681 -11.17486,-9.48857 -18.71875,-9.44163 z"
       id="path4610-1"
       inkscape:connector-curvature="0"
       sodipodi:nodetypes="cccccccccc" />
    <g
       id="g5852"
       style="opacity:0.7;fill:#b3b3b3;filter:url(#filter4007)"
       transform="matrix(0.44010386,0,0,0.44010386,97.979949,16.551299)">
      <rect
         style="fill:#b3b3b3;fill-opacity:1;stroke:none"
         id="rect5854"
         width="290.92392"
         height="56.568542"
         x="416.18286"
         y="508.90009"
         ry="6.7619271" />
      <rect
         style="fill:#b3b3b3;fill-opacity:1;stroke:none"
         id="rect5856"
         width="290.92392"
         height="56.568542"
         x="416.18286"
         y="608.90515"
         ry="6.7619271" />
      <rect
         style="fill:#b3b3b3;fill-opacity:1;stroke:none"
         id="rect5858"
         width="290.92392"
         height="56.568542"
         x="418.20316"
         y="708.91028"
         ry="6.7619271" />
    </g>
    <g
       id="g6233"
       transform="translate(-248.57146,-657.42858)">
      <rect
         ry="2.9759502"
         y="890.9071"
         x="529.71509"
         height="24.896034"
         width="128.03674"
         id="rect5813-7"
         style="fill:#101010;fill-opacity:1;stroke:none" />
      <rect
         ry="2.9759502"
         y="934.91974"
         x="529.71509"
         height="24.896034"
         width="128.03674"
         id="rect5813-4"
         style="fill:#101010;fill-opacity:1;stroke:none" />
      <rect
         ry="2.9759502"
         y="978.93237"
         x="530.60425"
         height="24.896034"
         width="128.03674"
         id="rect5813-2"
         style="fill:#101010;fill-opacity:1;stroke:none" />
    </g>
  </g>
</svg>
