<?xml version="1.0" encoding="UTF-8" standalone="no"?>
<!-- Created with Inkscape (http://www.inkscape.org/) -->

<svg
   xmlns:dc="http://purl.org/dc/elements/1.1/"
   xmlns:cc="http://creativecommons.org/ns#"
   xmlns:rdf="http://www.w3.org/1999/02/22-rdf-syntax-ns#"
   xmlns:svg="http://www.w3.org/2000/svg"
   xmlns="http://www.w3.org/2000/svg"
   xmlns:xlink="http://www.w3.org/1999/xlink"
   xmlns:sodipodi="http://sodipodi.sourceforge.net/DTD/sodipodi-0.dtd"
   xmlns:inkscape="http://www.inkscape.org/namespaces/inkscape"
   width="512"
   height="512"
   id="svg2"
   version="1.1"
   inkscape:version="0.48.2 r9819"
   sodipodi:docname="beericon.svg">
  <defs
     id="defs4">
    <linearGradient
       id="linearGradient4545">
      <stop
         style="stop-color:#cca02b;stop-opacity:1;"
         offset="0"
         id="stop4547" />
      <stop
         id="stop4555"
         offset="0.5"
         style="stop-color:#cca02b;stop-opacity:0.78431373;" />
      <stop
         id="stop4553"
         offset="1"
         style="stop-color:#cca02b;stop-opacity:0.5714286;" />
    </linearGradient>
    <inkscape:path-effect
       effect="skeletal"
       id="path-effect3936"
       is_visible="true"
       pattern="M 0,0 0,10 10,5 z"
       copytype="single_stretched"
       prop_scale="1"
       scale_y_rel="false"
       spacing="0"
       normal_offset="0"
       tang_offset="0"
       prop_units="false"
       vertical_pattern="false"
       fuse_tolerance="0" />
    <inkscape:path-effect
       effect="spiro"
       id="path-effect3934"
       is_visible="true" />
    <inkscape:path-effect
       effect="skeletal"
       id="path-effect3924"
       is_visible="true"
       pattern="m -267.14286,84.285714 0,10 10,-5 z"
       copytype="single_stretched"
       prop_scale="1"
       scale_y_rel="false"
       spacing="0"
       normal_offset="0"
       tang_offset="0"
       prop_units="false"
       vertical_pattern="false"
       fuse_tolerance="0" />
    <linearGradient
       inkscape:collect="always"
       xlink:href="#linearGradient4545"
       id="linearGradient4551"
       x1="105.71875"
       y1="579.98431"
       x2="219.4375"
       y2="579.98431"
       gradientUnits="userSpaceOnUse" />
  </defs>
  <sodipodi:namedview
     id="base"
     pagecolor="#ffffff"
     bordercolor="#666666"
     borderopacity="1.0"
     inkscape:pageopacity="0.0"
     inkscape:pageshadow="2"
     inkscape:zoom="0.49497475"
     inkscape:cx="163.33662"
     inkscape:cy="84.39111"
     inkscape:document-units="px"
     inkscape:current-layer="layer1"
     showgrid="false"
     showguides="true"
     inkscape:guide-bbox="true"
     inkscape:object-paths="false"
     inkscape:window-width="1600"
     inkscape:window-height="848"
     inkscape:window-x="-8"
     inkscape:window-y="-8"
     inkscape:window-maximized="1"
     fit-margin-top="0"
     fit-margin-left="0"
     fit-margin-right="0"
     fit-margin-bottom="0" />
  <metadata
     id="metadata7">
    <rdf:RDF>
      <cc:Work
         rdf:about="">
        <dc:format>image/svg+xml</dc:format>
        <dc:type
           rdf:resource="http://purl.org/dc/dcmitype/StillImage" />
        <dc:title></dc:title>
      </cc:Work>
    </rdf:RDF>
  </metadata>
  <g
     inkscape:label="Layer 1"
     inkscape:groupmode="layer"
     id="layer1"
     transform="translate(-36.59968,-359.24289)">
    <g
       id="g4835"
       transform="matrix(0.70870842,0.33841083,-0.34719785,0.69077214,215.79613,115.81075)">
      <path
         inkscape:connector-curvature="0"
         id="path3976"
         d="m 154.28125,399.34375 c -26.62314,3.57352 -45.93226,27.00459 -53.9241,51.35011 -8.833294,26.98295 -2.888535,55.82138 -4.584423,83.64983 0.477582,57.82617 -1.440552,115.72663 1.227273,173.50006 4.29923,26.75406 26.77147,51.75165 54.96875,52.5625 23.91264,1.57385 47.94495,-0.25793 71.84375,0.46875 3.94081,-0.39223 7.45868,-4.45444 5.6875,-8.46875 -0.65052,-18.96124 -1.00984,-37.93336 -0.9375,-56.90625 -16.74401,-5.33813 -37.41599,0.60017 -51.25,-12.34375 -12.94417,-12.24148 -12.67327,-31.58641 -11.53869,-48.18741 0.42679,-41.32369 -1.31779,-82.74063 1.10119,-124.00009 2.8674,-13.7008 12.96481,-29.246 28.68701,-28.68748 10.9896,-0.42072 22.06905,1.036 33.00049,-0.62502 0,-24.11458 0,-48.22917 0,-72.34375 -24.8276,-2.42983 -49.18331,-9.79867 -74.28125,-9.96875 z"
         style="fill:#333333;fill-opacity:1;stroke:none" />
      <path
         sodipodi:nodetypes="ssssccssssccs"
         inkscape:connector-curvature="0"
         id="rect3944"
         d="m 165,409.50446 c -32.43165,-5.18993 -59.28125,35.00839 -59.28125,67.85268 l 0,214.28125 c 0,32.84429 19.2941,59.28125 52.13839,59.28125 l 61.58036,0 c -0.54789,-15.35832 -0.86275,-31.08521 -0.875,-47.125 L 192.125,700.9375 c -20.83631,-2.25182 -36.41518,-24.02897 -36.41518,-44.98661 l 0,-135.75 c 0,-20.95764 15.45754,-47.84375 36.41518,-47.84375 l 26.4375,0 0,-54.28125 z"
         style="fill:url(#linearGradient4551);fill-opacity:1;stroke:none" />
      <path
         inkscape:connector-curvature="0"
         id="rect3966"
         d="m 526.25,315.65625 c -94.92108,0.66574 -189.88783,-0.69454 -284.78125,0.6875 -21.57381,3.28363 -36.9365,26.16806 -33.5301,47.5 0.23511,144.0509 -0.53034,288.11185 0.43635,432.15625 2.86068,22.45815 26.74391,38.08293 48.62499,34.37141 92.9003,-0.44695 185.84983,0.9199 278.71876,-0.74641 21.56353,-3.86316 36.12552,-27.11778 32.53009,-48.3125 -0.31802,-143.9644 0.64676,-287.96416 -0.53009,-431.90625 -3.13322,-19.39525 -21.77007,-34.57175 -41.46875,-33.75 z"
         style="fill:#333333;fill-opacity:1;stroke:none" />
      <rect
         ry="32.667591"
         y="323.79074"
         x="215.95236"
         height="498.57144"
         width="344.28571"
         id="rect3792"
         style="fill:#cca02b;fill-opacity:1;stroke:none" />
      <path
         id="path3809"
         d="m 267.3125,323.78125 c -2.9027,23.6905 -4.46875,48.03626 -4.46875,72.875 0,214.34456 112.59169,392.16411 260.125,425.71875 l 4.59375,0 c 18.09785,0 32.6875,-14.58965 32.6875,-32.6875 l 0,-433.21875 c 0,-18.09785 -14.58965,-32.6875 -32.6875,-32.6875 l -260.25,0 z"
         style="opacity:0.63461537;fill:#fecd08;fill-opacity:1;stroke:none"
         inkscape:connector-curvature="0" />
      <path
         style="fill:#fecd08;fill-opacity:1;stroke:none"
         d="m 477.90605,366.58896 5.61639,0 c 13.08569,0 23.62038,10.53469 23.62038,23.62038 l 0,354.30563 c 0,13.08569 -10.53469,23.62038 -23.62038,23.62038 l -5.61639,0 c -13.08569,0 -23.62037,-10.53469 -23.62037,-23.62038 l 0,-354.30563 c 0,-13.08569 10.53468,-23.62038 23.62037,-23.62038 z"
         id="rect3798"
         inkscape:connector-curvature="0" />
      <path
         style="fill:#fecd08;fill-opacity:1;stroke:none"
         d="m 282.52099,363.79074 3.52942,0 c 13.26806,0 23.94957,10.68151 23.94957,23.94958 l 0,359.24366 c 0,13.26807 -10.68151,23.94958 -23.94957,23.94958 l -3.52942,0 c -13.26807,0 -23.94958,-10.68151 -23.94958,-23.94958 l 0,-359.24366 c 0,-13.26807 10.68151,-23.94958 23.94958,-23.94958 z"
         id="rect3794"
         inkscape:connector-curvature="0" />
      <path
         inkscape:connector-curvature="0"
         id="path3904"
         d="m 376.95369,367.98807 7.04496,0 c 13.08569,0 23.62038,10.53469 23.62038,23.62037 l 0,354.30564 c 0,13.08569 -10.53469,23.62037 -23.62038,23.62037 l -7.04496,0 c -13.08569,0 -23.62038,-10.53468 -23.62038,-23.62037 l 0,-354.30564 c 0,-13.08568 10.53469,-23.62037 23.62038,-23.62037 z"
         style="fill:#fecd08;fill-opacity:1;stroke:none" />
      <path
         id="rect3796"
         d="m 376.96875,368 c -13.08569,0 -23.625,10.50807 -23.625,23.59375 l 0,312.78125 c 15.09971,20.79215 31.72244,39.46098 49.625,55.625 2.91718,-3.92928 4.65625,-8.80239 4.65625,-14.09375 l 0,-354.3125 C 407.625,378.50807 397.08569,368 384,368 l -7.03125,0 z"
         style="fill:#ffeeaf;fill-opacity:1;stroke:none"
         inkscape:connector-curvature="0" />
      <path
         inkscape:connector-curvature="0"
         id="path3913"
         d="m 477.90605,366.58896 5.61639,0 c 13.08569,0 23.62038,10.53469 23.62038,23.62038 l 0,354.30563 c 0,13.08569 -10.53469,23.62038 -23.62038,23.62038 l -5.61639,0 c -13.08569,0 -23.62037,-10.53469 -23.62037,-23.62038 l 0,-354.30563 c 0,-13.08569 10.53468,-23.62038 23.62037,-23.62038 z"
         style="fill:#ffeeaf;fill-opacity:1;stroke:none" />
      <path
         inkscape:connector-curvature="0"
         id="rect3800"
         d="m 517.15625,782.5625 c -84.18034,0.37271 -168.46755,-0.28366 -252.625,0.34375 -7.00142,1.81583 -4.27963,13.66521 2.90625,12.03026 84.11759,-0.1999 168.29455,0.3992 252.375,-0.31151 6.95119,-1.94953 4.28768,-13.01336 -2.65625,-12.0625 z"
         style="fill:#333333;fill-opacity:1;stroke:none" />
      <path
         id="path3897"
         d="m 282.53125,363.78125 c -8.82344,0 -16.50128,4.74557 -20.65625,11.8125 -0.28268,7.45089 -0.46875,14.95355 -0.46875,22.5 0,85.27073 17.84473,164.72979 48.59375,231.65625 l 0,-242 c 0,-13.26807 -10.66944,-23.96875 -23.9375,-23.96875 l -3.53125,0 z"
         style="opacity:0.63461537;fill:#ffffff;fill-opacity:1;stroke:none"
         inkscape:connector-curvature="0" />
      <path
         d="m 290.92393,324.04221 c 0,21.75778 -17.63816,39.39595 -39.39595,39.39595 -21.75778,0 -39.39595,-17.63817 -39.39595,-39.39595 0,-21.75779 17.63817,-39.39595 39.39595,-39.39595 21.75779,0 39.39595,17.63816 39.39595,39.39595 z"
         sodipodi:ry="39.39595"
         sodipodi:rx="39.39595"
         sodipodi:cy="324.04221"
         sodipodi:cx="251.52798"
         id="path4200"
         style="fill:#333333;fill-opacity:1;stroke:none"
         sodipodi:type="arc"
         transform="matrix(1.0446429,0,0,1.0842696,289.82359,171.89174)" />
      <g
         id="g4746">
        <path
           d="m 290.92393,324.04221 c 0,21.75778 -17.63816,39.39595 -39.39595,39.39595 -21.75778,0 -39.39595,-17.63817 -39.39595,-39.39595 0,-21.75779 17.63817,-39.39595 39.39595,-39.39595 21.75779,0 39.39595,17.63816 39.39595,39.39595 z"
           sodipodi:ry="39.39595"
           sodipodi:rx="39.39595"
           sodipodi:cy="324.04221"
           sodipodi:cx="251.52798"
           id="path4168"
           style="fill:#333333;fill-opacity:1;stroke:none"
           sodipodi:type="arc"
           transform="matrix(1.0446429,0,0,1.0842696,-47.855981,20.743414)" />
        <path
           d="m 290.92393,324.04221 c 0,21.75778 -17.63816,39.39595 -39.39595,39.39595 -21.75778,0 -39.39595,-17.63817 -39.39595,-39.39595 0,-21.75779 17.63817,-39.39595 39.39595,-39.39595 21.75779,0 39.39595,17.63816 39.39595,39.39595 z"
           sodipodi:ry="39.39595"
           sodipodi:rx="39.39595"
           sodipodi:cy="324.04221"
           sodipodi:cx="251.52798"
           id="path4172"
           style="fill:#333333;fill-opacity:1;stroke:none"
           sodipodi:type="arc"
           transform="matrix(1.0446429,0,0,1.0842696,-20.419512,-25.258248)" />
        <path
           transform="matrix(1.0446429,0,0,1.0842696,26.01143,-34.02047)"
           sodipodi:type="arc"
           style="fill:#333333;fill-opacity:1;stroke:none"
           id="path4174"
           sodipodi:cx="251.52798"
           sodipodi:cy="324.04221"
           sodipodi:rx="39.39595"
           sodipodi:ry="39.39595"
           d="m 290.92393,324.04221 c 0,21.75778 -17.63816,39.39595 -39.39595,39.39595 -21.75778,0 -39.39595,-17.63817 -39.39595,-39.39595 0,-21.75779 17.63817,-39.39595 39.39595,-39.39595 21.75779,0 39.39595,17.63816 39.39595,39.39595 z" />
        <path
           d="m 290.92393,324.04221 c 0,21.75778 -17.63816,39.39595 -39.39595,39.39595 -21.75778,0 -39.39595,-17.63817 -39.39595,-39.39595 0,-21.75779 17.63817,-39.39595 39.39595,-39.39595 21.75779,0 39.39595,17.63816 39.39595,39.39595 z"
           sodipodi:ry="39.39595"
           sodipodi:rx="39.39595"
           sodipodi:cy="324.04221"
           sodipodi:cx="251.52798"
           id="path4176"
           style="fill:#333333;fill-opacity:1;stroke:none"
           sodipodi:type="arc"
           transform="matrix(1.0446429,0,0,1.0842696,74.55287,-44.973247)" />
        <path
           transform="matrix(1.0446429,0,0,1.0842696,129.4258,-20.877137)"
           sodipodi:type="arc"
           style="fill:#333333;fill-opacity:1;stroke:none"
           id="path4178"
           sodipodi:cx="251.52798"
           sodipodi:cy="324.04221"
           sodipodi:rx="39.39595"
           sodipodi:ry="39.39595"
           d="m 290.92393,324.04221 c 0,21.75778 -17.63816,39.39595 -39.39595,39.39595 -21.75778,0 -39.39595,-17.63817 -39.39595,-39.39595 0,-21.75779 17.63817,-39.39595 39.39595,-39.39595 21.75779,0 39.39595,17.63816 39.39595,39.39595 z" />
        <path
           d="m 290.92393,324.04221 c 0,21.75778 -17.63816,39.39595 -39.39595,39.39595 -21.75778,0 -39.39595,-17.63817 -39.39595,-39.39595 0,-21.75779 17.63817,-39.39595 39.39595,-39.39595 21.75779,0 39.39595,17.63816 39.39595,39.39595 z"
           sodipodi:ry="39.39595"
           sodipodi:rx="39.39595"
           sodipodi:cy="324.04221"
           sodipodi:cx="251.52798"
           id="path4180"
           style="fill:#333333;fill-opacity:1;stroke:none"
           sodipodi:type="arc"
           transform="matrix(1.0446429,0,0,1.0842696,171.63575,-47.163802)" />
        <path
           transform="matrix(1.0446429,0,0,1.0842696,220.17719,-12.114916)"
           sodipodi:type="arc"
           style="fill:#333333;fill-opacity:1;stroke:none"
           id="path4182"
           sodipodi:cx="251.52798"
           sodipodi:cy="324.04221"
           sodipodi:rx="39.39595"
           sodipodi:ry="39.39595"
           d="m 290.92393,324.04221 c 0,21.75778 -17.63816,39.39595 -39.39595,39.39595 -21.75778,0 -39.39595,-17.63817 -39.39595,-39.39595 0,-21.75779 17.63817,-39.39595 39.39595,-39.39595 21.75779,0 39.39595,17.63816 39.39595,39.39595 z" />
        <path
           d="m 290.92393,324.04221 c 0,21.75778 -17.63816,39.39595 -39.39595,39.39595 -21.75778,0 -39.39595,-17.63817 -39.39595,-39.39595 0,-21.75779 17.63817,-39.39595 39.39595,-39.39595 21.75779,0 39.39595,17.63816 39.39595,39.39595 z"
           sodipodi:ry="39.39595"
           sodipodi:rx="39.39595"
           sodipodi:cy="324.04221"
           sodipodi:cx="251.52798"
           id="path4184"
           style="fill:#333333;fill-opacity:1;stroke:none"
           sodipodi:type="arc"
           transform="matrix(1.0446429,0,0,1.0842696,167.41475,20.743414)" />
        <path
           transform="matrix(1.0446429,0,0,1.0842696,53.447893,16.362304)"
           sodipodi:type="arc"
           style="fill:#333333;fill-opacity:1;stroke:none"
           id="path4186"
           sodipodi:cx="251.52798"
           sodipodi:cy="324.04221"
           sodipodi:rx="39.39595"
           sodipodi:ry="39.39595"
           d="m 290.92393,324.04221 c 0,21.75778 -17.63816,39.39595 -39.39595,39.39595 -21.75778,0 -39.39595,-17.63817 -39.39595,-39.39595 0,-21.75779 17.63817,-39.39595 39.39595,-39.39595 21.75779,0 39.39595,17.63816 39.39595,39.39595 z" />
        <path
           transform="matrix(1.0446429,0,0,1.0842696,247.61365,7.6000814)"
           sodipodi:type="arc"
           style="fill:#333333;fill-opacity:1;stroke:none"
           id="path4188"
           sodipodi:cx="251.52798"
           sodipodi:cy="324.04221"
           sodipodi:rx="39.39595"
           sodipodi:ry="39.39595"
           d="m 290.92393,324.04221 c 0,21.75778 -17.63816,39.39595 -39.39595,39.39595 -21.75778,0 -39.39595,-17.63817 -39.39595,-39.39595 0,-21.75779 17.63817,-39.39595 39.39595,-39.39595 21.75779,0 39.39595,17.63816 39.39595,39.39595 z" />
        <path
           d="m 290.92393,324.04221 c 0,21.75778 -17.63816,39.39595 -39.39595,39.39595 -21.75778,0 -39.39595,-17.63817 -39.39595,-39.39595 0,-21.75779 17.63817,-39.39595 39.39595,-39.39595 21.75779,0 39.39595,17.63816 39.39595,39.39595 z"
           sodipodi:ry="39.39595"
           sodipodi:rx="39.39595"
           sodipodi:cy="324.04221"
           sodipodi:cx="251.52798"
           id="path4190"
           style="fill:#333333;fill-opacity:1;stroke:none"
           sodipodi:type="arc"
           transform="matrix(1.0446429,0,0,1.0842696,251.83464,-44.973248)" />
        <path
           transform="matrix(1.0446429,0,0,1.0842696,308.81807,-31.829916)"
           sodipodi:type="arc"
           style="fill:#333333;fill-opacity:1;stroke:none"
           id="path4192"
           sodipodi:cx="251.52798"
           sodipodi:cy="324.04221"
           sodipodi:rx="39.39595"
           sodipodi:ry="39.39595"
           d="m 290.92393,324.04221 c 0,21.75778 -17.63816,39.39595 -39.39595,39.39595 -21.75778,0 -39.39595,-17.63817 -39.39595,-39.39595 0,-21.75779 17.63817,-39.39595 39.39595,-39.39595 21.75779,0 39.39595,17.63816 39.39595,39.39595 z" />
        <path
           d="m 290.92393,324.04221 c 0,21.75778 -17.63816,39.39595 -39.39595,39.39595 -21.75778,0 -39.39595,-17.63817 -39.39595,-39.39595 0,-21.75779 17.63817,-39.39595 39.39595,-39.39595 21.75779,0 39.39595,17.63816 39.39595,39.39595 z"
           sodipodi:ry="39.39595"
           sodipodi:rx="39.39595"
           sodipodi:cy="324.04221"
           sodipodi:cx="251.52798"
           id="path4194"
           style="fill:#333333;fill-opacity:1;stroke:none"
           sodipodi:type="arc"
           transform="matrix(1.0446429,0,0,1.0842696,319.37056,31.696191)" />
        <path
           transform="matrix(1.0446429,0,0,1.0842696,308.81807,95.222299)"
           sodipodi:type="arc"
           style="fill:#333333;fill-opacity:1;stroke:none"
           id="path4196"
           sodipodi:cx="251.52798"
           sodipodi:cy="324.04221"
           sodipodi:rx="39.39595"
           sodipodi:ry="39.39595"
           d="m 290.92393,324.04221 c 0,21.75778 -17.63816,39.39595 -39.39595,39.39595 -21.75778,0 -39.39595,-17.63817 -39.39595,-39.39595 0,-21.75779 17.63817,-39.39595 39.39595,-39.39595 21.75779,0 39.39595,17.63816 39.39595,39.39595 z" />
        <path
           d="m 290.92393,324.04221 c 0,21.75778 -17.63816,39.39595 -39.39595,39.39595 -21.75778,0 -39.39595,-17.63817 -39.39595,-39.39595 0,-21.75779 17.63817,-39.39595 39.39595,-39.39595 21.75779,0 39.39595,17.63816 39.39595,39.39595 z"
           sodipodi:ry="39.39595"
           sodipodi:rx="39.39595"
           sodipodi:cy="324.04221"
           sodipodi:cx="251.52798"
           id="path4198"
           style="fill:#333333;fill-opacity:1;stroke:none"
           sodipodi:type="arc"
           transform="matrix(1.0446429,0,0,1.0842696,313.03907,128.08063)" />
        <path
           transform="matrix(1.0446429,0,0,1.0842696,340.47553,128.08063)"
           sodipodi:type="arc"
           style="fill:#333333;fill-opacity:1;stroke:none"
           id="path4202"
           sodipodi:cx="251.52798"
           sodipodi:cy="324.04221"
           sodipodi:rx="39.39595"
           sodipodi:ry="39.39595"
           d="m 290.92393,324.04221 c 0,21.75778 -17.63816,39.39595 -39.39595,39.39595 -21.75778,0 -39.39595,-17.63817 -39.39595,-39.39595 0,-21.75779 17.63817,-39.39595 39.39595,-39.39595 21.75779,0 39.39595,17.63816 39.39595,39.39595 z" />
        <path
           d="m 290.92393,324.04221 c 0,21.75778 -17.63816,39.39595 -39.39595,39.39595 -21.75778,0 -39.39595,-17.63817 -39.39595,-39.39595 0,-21.75779 17.63817,-39.39595 39.39595,-39.39595 21.75779,0 39.39595,17.63816 39.39595,39.39595 z"
           sodipodi:ry="39.39595"
           sodipodi:rx="39.39595"
           sodipodi:cy="324.04221"
           sodipodi:cx="251.52798"
           id="path4204"
           style="fill:#333333;fill-opacity:1;stroke:none"
           sodipodi:type="arc"
           transform="matrix(1.0446429,0,0,1.0842696,97.768325,-5.5432449)" />
        <path
           transform="matrix(1.0446429,0,0,1.0842696,251.83463,51.411195)"
           sodipodi:type="arc"
           style="fill:#333333;fill-opacity:1;stroke:none"
           id="path4206"
           sodipodi:cx="251.52798"
           sodipodi:cy="324.04221"
           sodipodi:rx="39.39595"
           sodipodi:ry="39.39595"
           d="m 290.92393,324.04221 c 0,21.75778 -17.63816,39.39595 -39.39595,39.39595 -21.75778,0 -39.39595,-17.63817 -39.39595,-39.39595 0,-21.75779 17.63817,-39.39595 39.39595,-39.39595 21.75779,0 39.39595,17.63816 39.39595,39.39595 z" />
        <path
           d="m 290.92393,324.04221 c 0,21.75778 -17.63816,39.39595 -39.39595,39.39595 -21.75778,0 -39.39595,-17.63817 -39.39595,-39.39595 0,-21.75779 17.63817,-39.39595 39.39595,-39.39595 21.75779,0 39.39595,17.63816 39.39595,39.39595 z"
           sodipodi:ry="39.39595"
           sodipodi:rx="39.39595"
           sodipodi:cy="324.04221"
           sodipodi:cx="251.52798"
           id="path4208"
           style="fill:#333333;fill-opacity:1;stroke:none"
           sodipodi:type="arc"
           transform="matrix(1.0446429,0,0,1.0842696,205.40369,9.7906421)" />
        <path
           transform="matrix(1.0446429,0,0,1.0842696,-3.5355484,-58.116575)"
           sodipodi:type="arc"
           style="fill:#333333;fill-opacity:1;stroke:none"
           id="path4210"
           sodipodi:cx="251.52798"
           sodipodi:cy="324.04221"
           sodipodi:rx="39.39595"
           sodipodi:ry="39.39595"
           d="m 290.92393,324.04221 c 0,21.75778 -17.63816,39.39595 -39.39595,39.39595 -21.75778,0 -39.39595,-17.63817 -39.39595,-39.39595 0,-21.75779 17.63817,-39.39595 39.39595,-39.39595 21.75779,0 39.39595,17.63816 39.39595,39.39595 z" />
        <path
           d="m 290.92393,324.04221 c 0,21.75778 -17.63816,39.39595 -39.39595,39.39595 -21.75778,0 -39.39595,-17.63817 -39.39595,-39.39595 0,-21.75779 17.63817,-39.39595 39.39595,-39.39595 21.75779,0 39.39595,17.63816 39.39595,39.39595 z"
           sodipodi:ry="39.39595"
           sodipodi:rx="39.39595"
           sodipodi:cy="324.04221"
           sodipodi:cx="251.52798"
           id="path4212"
           style="fill:#333333;fill-opacity:1;stroke:none"
           sodipodi:type="arc"
           transform="matrix(1.0446429,0,0,1.0842696,45.005891,-66.878796)" />
        <path
           transform="matrix(1.0446429,0,0,1.0842696,45.005891,-66.878796)"
           sodipodi:type="arc"
           style="fill:#333333;fill-opacity:1;stroke:none"
           id="path4214"
           sodipodi:cx="251.52798"
           sodipodi:cy="324.04221"
           sodipodi:rx="39.39595"
           sodipodi:ry="39.39595"
           d="m 290.92393,324.04221 c 0,21.75778 -17.63816,39.39595 -39.39595,39.39595 -21.75778,0 -39.39595,-17.63817 -39.39595,-39.39595 0,-21.75779 17.63817,-39.39595 39.39595,-39.39595 21.75779,0 39.39595,17.63816 39.39595,39.39595 z" />
        <path
           d="m 290.92393,324.04221 c 0,21.75778 -17.63816,39.39595 -39.39595,39.39595 -21.75778,0 -39.39595,-17.63817 -39.39595,-39.39595 0,-21.75779 17.63817,-39.39595 39.39595,-39.39595 21.75779,0 39.39595,17.63816 39.39595,39.39595 z"
           sodipodi:ry="39.39595"
           sodipodi:rx="39.39595"
           sodipodi:cy="324.04221"
           sodipodi:cx="251.52798"
           id="path4216"
           style="fill:#333333;fill-opacity:1;stroke:none"
           sodipodi:type="arc"
           transform="matrix(1.0446429,0,0,1.0842696,106.21031,-90.974906)" />
        <path
           transform="matrix(1.0446429,0,0,1.0842696,150.53076,-93.165461)"
           sodipodi:type="arc"
           style="fill:#333333;fill-opacity:1;stroke:none"
           id="path4218"
           sodipodi:cx="251.52798"
           sodipodi:cy="324.04221"
           sodipodi:rx="39.39595"
           sodipodi:ry="39.39595"
           d="m 290.92393,324.04221 c 0,21.75778 -17.63816,39.39595 -39.39595,39.39595 -21.75778,0 -39.39595,-17.63817 -39.39595,-39.39595 0,-21.75779 17.63817,-39.39595 39.39595,-39.39595 21.75779,0 39.39595,17.63816 39.39595,39.39595 z" />
        <path
           d="m 290.92393,324.04221 c 0,21.75778 -17.63816,39.39595 -39.39595,39.39595 -21.75778,0 -39.39595,-17.63817 -39.39595,-39.39595 0,-21.75779 17.63817,-39.39595 39.39595,-39.39595 21.75779,0 39.39595,17.63816 39.39595,39.39595 z"
           sodipodi:ry="39.39595"
           sodipodi:rx="39.39595"
           sodipodi:cy="324.04221"
           sodipodi:cx="251.52798"
           id="path4220"
           style="fill:#333333;fill-opacity:1;stroke:none"
           sodipodi:type="arc"
           transform="matrix(1.0446429,0,0,1.0842696,186.40922,-77.831573)" />
        <path
           transform="matrix(1.0446429,0,0,1.0842696,26.011421,-93.165461)"
           sodipodi:type="arc"
           style="fill:#333333;fill-opacity:1;stroke:none"
           id="path4222"
           sodipodi:cx="251.52798"
           sodipodi:cy="324.04221"
           sodipodi:rx="39.39595"
           sodipodi:ry="39.39595"
           d="m 290.92393,324.04221 c 0,21.75778 -17.63816,39.39595 -39.39595,39.39595 -21.75778,0 -39.39595,-17.63817 -39.39595,-39.39595 0,-21.75779 17.63817,-39.39595 39.39595,-39.39595 21.75779,0 39.39595,17.63816 39.39595,39.39595 z" />
        <path
           d="m 290.92393,324.04221 c 0,21.75778 -17.63816,39.39595 -39.39595,39.39595 -21.75778,0 -39.39595,-17.63817 -39.39595,-39.39595 0,-21.75779 17.63817,-39.39595 39.39595,-39.39595 21.75779,0 39.39595,17.63816 39.39595,39.39595 z"
           sodipodi:ry="39.39595"
           sodipodi:rx="39.39595"
           sodipodi:cy="324.04221"
           sodipodi:cx="251.52798"
           id="path4224"
           style="fill:#333333;fill-opacity:1;stroke:none"
           sodipodi:type="arc"
           transform="matrix(1.0446429,0,0,1.0842696,57.668881,-106.30879)" />
        <path
           d="m 290.92393,324.04221 c 0,21.75778 -17.63816,39.39595 -39.39595,39.39595 -21.75778,0 -39.39595,-17.63817 -39.39595,-39.39595 0,-21.75779 17.63817,-39.39595 39.39595,-39.39595 21.75779,0 39.39595,17.63816 39.39595,39.39595 z"
           sodipodi:ry="39.39595"
           sodipodi:rx="39.39595"
           sodipodi:cy="324.04221"
           sodipodi:cx="251.52798"
           id="path4226"
           style="fill:#333333;fill-opacity:1;stroke:none"
           sodipodi:type="arc"
           transform="matrix(0.8571429,0,0,1.0842696,162.89028,-106.37484)" />
        <path
           transform="matrix(1.0446429,0,0,1.0842696,110.43132,-112.88046)"
           sodipodi:type="arc"
           style="fill:#333333;fill-opacity:1;stroke:none"
           id="path4228"
           sodipodi:cx="251.52798"
           sodipodi:cy="324.04221"
           sodipodi:rx="39.39595"
           sodipodi:ry="39.39595"
           d="m 290.92393,324.04221 c 0,21.75778 -17.63816,39.39595 -39.39595,39.39595 -21.75778,0 -39.39595,-17.63817 -39.39595,-39.39595 0,-21.75779 17.63817,-39.39595 39.39595,-39.39595 21.75779,0 39.39595,17.63816 39.39595,39.39595 z" />
        <path
           d="m 290.92393,324.04221 c 0,21.75778 -17.63816,39.39595 -39.39595,39.39595 -21.75778,0 -39.39595,-17.63817 -39.39595,-39.39595 0,-21.75779 17.63817,-39.39595 39.39595,-39.39595 21.75779,0 39.39595,17.63816 39.39595,39.39595 z"
           sodipodi:ry="39.39595"
           sodipodi:rx="39.39595"
           sodipodi:cy="324.04221"
           sodipodi:cx="251.52798"
           id="path4230"
           style="fill:#333333;fill-opacity:1;stroke:none"
           sodipodi:type="arc"
           transform="matrix(1.0446429,0,0,1.0842696,213.84569,-88.78435)" />
        <path
           transform="matrix(1.0446429,0,0,1.0842696,253.94514,-77.831574)"
           sodipodi:type="arc"
           style="fill:#333333;fill-opacity:1;stroke:none"
           id="path4232"
           sodipodi:cx="251.52798"
           sodipodi:cy="324.04221"
           sodipodi:rx="39.39595"
           sodipodi:ry="39.39595"
           d="m 290.92393,324.04221 c 0,21.75778 -17.63816,39.39595 -39.39595,39.39595 -21.75778,0 -39.39595,-17.63817 -39.39595,-39.39595 0,-21.75779 17.63817,-39.39595 39.39595,-39.39595 21.75779,0 39.39595,17.63816 39.39595,39.39595 z" />
        <path
           d="m 290.92393,324.04221 c 0,21.75778 -17.63816,39.39595 -39.39595,39.39595 -21.75778,0 -39.39595,-17.63817 -39.39595,-39.39595 0,-21.75779 17.63817,-39.39595 39.39595,-39.39595 21.75779,0 39.39595,17.63816 39.39595,39.39595 z"
           sodipodi:ry="39.39595"
           sodipodi:rx="39.39595"
           sodipodi:cy="324.04221"
           sodipodi:cx="251.52798"
           id="path4234"
           style="fill:#333333;fill-opacity:1;stroke:none"
           sodipodi:type="arc"
           transform="matrix(1.0446429,0,0,1.0842696,272.93962,-71.259908)" />
        <path
           transform="matrix(1.0446429,0,0,1.0842696,296.1551,-42.782688)"
           sodipodi:type="arc"
           style="fill:#333333;fill-opacity:1;stroke:none"
           id="path4236"
           sodipodi:cx="251.52798"
           sodipodi:cy="324.04221"
           sodipodi:rx="39.39595"
           sodipodi:ry="39.39595"
           d="m 290.92393,324.04221 c 0,21.75778 -17.63816,39.39595 -39.39595,39.39595 -21.75778,0 -39.39595,-17.63817 -39.39595,-39.39595 0,-21.75779 17.63817,-39.39595 39.39595,-39.39595 21.75779,0 39.39595,17.63816 39.39595,39.39595 z" />
        <path
           d="m 290.92393,324.04221 c 0,21.75778 -17.63816,39.39595 -39.39595,39.39595 -21.75778,0 -39.39595,-17.63817 -39.39595,-39.39595 0,-21.75779 17.63817,-39.39595 39.39595,-39.39595 21.75779,0 39.39595,17.63816 39.39595,39.39595 z"
           sodipodi:ry="39.39595"
           sodipodi:rx="39.39595"
           sodipodi:cy="324.04221"
           sodipodi:cx="251.52798"
           id="path4238"
           style="fill:#333333;fill-opacity:1;stroke:none"
           sodipodi:type="arc"
           transform="matrix(1.0446429,0,0,1.0842696,321.48107,-23.06769)" />
        <path
           transform="matrix(0.75000004,0,0,1.0842696,411.42073,25.124529)"
           sodipodi:type="arc"
           style="fill:#333333;fill-opacity:1;stroke:none"
           id="path4240"
           sodipodi:cx="251.52798"
           sodipodi:cy="324.04221"
           sodipodi:rx="39.39595"
           sodipodi:ry="39.39595"
           d="m 290.92393,324.04221 c 0,21.75778 -17.63816,39.39595 -39.39595,39.39595 -21.75778,0 -39.39595,-17.63817 -39.39595,-39.39595 0,-21.75779 17.63817,-39.39595 39.39595,-39.39595 21.75779,0 39.39595,17.63816 39.39595,39.39595 z" />
        <path
           transform="matrix(0.53571433,0,0,1.0842696,463.25151,77.653826)"
           sodipodi:type="arc"
           style="fill:#333333;fill-opacity:1;stroke:none"
           id="path4242"
           sodipodi:cx="251.52798"
           sodipodi:cy="324.04221"
           sodipodi:rx="39.39595"
           sodipodi:ry="39.39595"
           d="m 290.92393,324.04221 c 0,21.75778 -17.63816,39.39595 -39.39595,39.39595 -21.75778,0 -39.39595,-17.63817 -39.39595,-39.39595 0,-21.75779 17.63817,-39.39595 39.39595,-39.39595 21.75779,0 39.39595,17.63816 39.39595,39.39595 z" />
        <path
           d="m 290.92393,324.04221 c 0,21.75778 -17.63816,39.39595 -39.39595,39.39595 -21.75778,0 -39.39595,-17.63817 -39.39595,-39.39595 0,-21.75779 17.63817,-39.39595 39.39595,-39.39595 21.75779,0 39.39595,17.63816 39.39595,39.39595 z"
           sodipodi:ry="39.39595"
           sodipodi:rx="39.39595"
           sodipodi:cy="324.04221"
           sodipodi:cx="251.52798"
           id="path4244"
           style="fill:#333333;fill-opacity:1;stroke:none"
           sodipodi:type="arc"
           transform="matrix(0.53571433,0,0,1.167675,467.43008,43.004061)" />
        <path
           transform="matrix(0.53571433,0,0,1.0842696,490.64556,101.79397)"
           sodipodi:type="arc"
           style="fill:#333333;fill-opacity:1;stroke:none"
           id="path4246"
           sodipodi:cx="251.52798"
           sodipodi:cy="324.04221"
           sodipodi:rx="39.39595"
           sodipodi:ry="39.39595"
           d="m 290.92393,324.04221 c 0,21.75778 -17.63816,39.39595 -39.39595,39.39595 -21.75778,0 -39.39595,-17.63817 -39.39595,-39.39595 0,-21.75779 17.63817,-39.39595 39.39595,-39.39595 21.75779,0 39.39595,17.63816 39.39595,39.39595 z" />
        <path
           style="fill:#333333;fill-opacity:1;stroke:none"
           d="m 566.25,287.84375 c -6.47636,0 -12.48419,2.54982 -17.5,6.9375 1.94384,-0.29235 3.91561,-0.46875 5.9375,-0.46875 22.72911,0 41.15625,19.12745 41.15625,42.71875 0,4.16358 -0.58604,8.19526 -1.65625,12 2.36776,-5.83304 3.71875,-12.48902 3.71875,-19.5625 0,-22.9864 -14.17232,-41.625 -31.65625,-41.625 z"
           id="path4252"
           inkscape:connector-curvature="0" />
        <path
           transform="translate(-26.263969,42.426406)"
           sodipodi:type="arc"
           style="fill:#ccb388;fill-opacity:1;stroke:none"
           id="path4004"
           sodipodi:cx="251.52798"
           sodipodi:cy="324.04221"
           sodipodi:rx="39.39595"
           sodipodi:ry="39.39595"
           d="m 290.92393,324.04221 c 0,21.75778 -17.63816,39.39595 -39.39595,39.39595 -21.75778,0 -39.39595,-17.63817 -39.39595,-39.39595 0,-21.75779 17.63817,-39.39595 39.39595,-39.39595 21.75779,0 39.39595,17.63816 39.39595,39.39595 z" />
        <path
           id="path4523"
           d="m 304.72661,317.78741 c 4.60981,0.13049 8.93661,-0.74389 12.4705,-2.33599 -0.83276,0.0243 -1.65929,0.0284 -2.5082,0.004 -15.04197,-0.42578 -26.6459,-8.44522 -25.91693,-17.91043 0.002,-0.0292 0.004,-0.0587 0.007,-0.0878 -1.91165,1.90466 -3.09688,4.1496 -3.284,6.57923 -0.56074,7.28093 8.04682,13.43394 19.23187,13.75055 z"
           style="fill:#333333;fill-opacity:1;stroke:none"
           inkscape:connector-curvature="0" />
        <path
           id="path4568"
           d="m 582.41245,318.14832 c -6.47636,0 -12.48419,2.54982 -17.5,6.9375 1.94384,-0.29235 3.91561,-0.46875 5.9375,-0.46875 22.72911,0 41.15625,19.12745 41.15625,42.71875 0,4.16358 -0.58604,8.19526 -1.65625,12 2.36776,-5.83304 3.71875,-12.48902 3.71875,-19.5625 0,-22.9864 -14.17232,-41.625 -31.65625,-41.625 z"
           style="fill:#fcfcfc;fill-opacity:1;stroke:none"
           inkscape:connector-curvature="0" />
        <path
           inkscape:connector-curvature="0"
           style="fill:#fcfcfc;fill-opacity:1;stroke:none"
           d="m 309.67126,231.2752 c -6.47636,0 -12.48419,1.7921 -17.5,4.87592 1.94384,-0.20547 3.91561,-0.32945 5.9375,-0.32945 22.72911,0 41.15625,13.44345 41.15625,30.02426 0,2.92631 -0.58604,5.75992 -1.65625,8.43402 2.36776,-4.09966 3.71875,-8.77772 3.71875,-13.74922 0,-16.15566 -14.17232,-29.25553 -31.65625,-29.25553 z"
           id="path4570" />
      </g>
      <path
         d="m 290.92393,324.04221 c 0,21.75778 -17.63816,39.39595 -39.39595,39.39595 -21.75778,0 -39.39595,-17.63817 -39.39595,-39.39595 0,-21.75779 17.63817,-39.39595 39.39595,-39.39595 21.75779,0 39.39595,17.63816 39.39595,39.39595 z"
         sodipodi:ry="39.39595"
         sodipodi:rx="39.39595"
         sodipodi:cy="324.04221"
         sodipodi:cx="251.52798"
         id="path3988"
         style="fill:#ccb388;fill-opacity:1;stroke:none"
         sodipodi:type="arc" />
      <path
         transform="translate(44.446712,-8.0812204)"
         sodipodi:type="arc"
         style="fill:#ccb388;fill-opacity:1;stroke:none"
         id="path3990"
         sodipodi:cx="251.52798"
         sodipodi:cy="324.04221"
         sodipodi:rx="39.39595"
         sodipodi:ry="39.39595"
         d="m 290.92393,324.04221 c 0,21.75778 -17.63816,39.39595 -39.39595,39.39595 -21.75778,0 -39.39595,-17.63817 -39.39595,-39.39595 0,-21.75779 17.63817,-39.39595 39.39595,-39.39595 21.75779,0 39.39595,17.63816 39.39595,39.39595 z" />
      <path
         d="m 290.92393,324.04221 c 0,21.75778 -17.63816,39.39595 -39.39595,39.39595 -21.75778,0 -39.39595,-17.63817 -39.39595,-39.39595 0,-21.75779 17.63817,-39.39595 39.39595,-39.39595 21.75779,0 39.39595,17.63816 39.39595,39.39595 z"
         sodipodi:ry="39.39595"
         sodipodi:rx="39.39595"
         sodipodi:cy="324.04221"
         sodipodi:cx="251.52798"
         id="path3992"
         style="fill:#ccb388;fill-opacity:1;stroke:none"
         sodipodi:type="arc"
         transform="translate(90.913729,-18.182746)" />
      <path
         transform="translate(143.44166,4.04061)"
         sodipodi:type="arc"
         style="fill:#ccb388;fill-opacity:1;stroke:none"
         id="path3994"
         sodipodi:cx="251.52798"
         sodipodi:cy="324.04221"
         sodipodi:rx="39.39595"
         sodipodi:ry="39.39595"
         d="m 290.92393,324.04221 c 0,21.75778 -17.63816,39.39595 -39.39595,39.39595 -21.75778,0 -39.39595,-17.63817 -39.39595,-39.39595 0,-21.75779 17.63817,-39.39595 39.39595,-39.39595 21.75779,0 39.39595,17.63816 39.39595,39.39595 z" />
      <path
         d="m 290.92393,324.04221 c 0,21.75778 -17.63816,39.39595 -39.39595,39.39595 -21.75778,0 -39.39595,-17.63817 -39.39595,-39.39595 0,-21.75779 17.63817,-39.39595 39.39595,-39.39595 21.75779,0 39.39595,17.63816 39.39595,39.39595 z"
         sodipodi:ry="39.39595"
         sodipodi:rx="39.39595"
         sodipodi:cy="324.04221"
         sodipodi:cx="251.52798"
         id="path3996"
         style="fill:#ccb388;fill-opacity:1;stroke:none"
         sodipodi:type="arc"
         transform="translate(183.84776,-20.203051)" />
      <path
         transform="translate(230.31478,12.12183)"
         sodipodi:type="arc"
         style="fill:#ccb388;fill-opacity:1;stroke:none"
         id="path3998"
         sodipodi:cx="251.52798"
         sodipodi:cy="324.04221"
         sodipodi:rx="39.39595"
         sodipodi:ry="39.39595"
         d="m 290.92393,324.04221 c 0,21.75778 -17.63816,39.39595 -39.39595,39.39595 -21.75778,0 -39.39595,-17.63817 -39.39595,-39.39595 0,-21.75779 17.63817,-39.39595 39.39595,-39.39595 21.75779,0 39.39595,17.63816 39.39595,39.39595 z" />
      <path
         d="m 290.92393,324.04221 c 0,21.75778 -17.63816,39.39595 -39.39595,39.39595 -21.75778,0 -39.39595,-17.63817 -39.39595,-39.39595 0,-21.75779 17.63817,-39.39595 39.39595,-39.39595 21.75779,0 39.39595,17.63816 39.39595,39.39595 z"
         sodipodi:ry="39.39595"
         sodipodi:rx="39.39595"
         sodipodi:cy="324.04221"
         sodipodi:cx="251.52798"
         id="path4000"
         style="fill:#ccb388;fill-opacity:1;stroke:none"
         sodipodi:type="arc"
         transform="translate(179.80715,42.426406)" />
      <path
         transform="translate(70.710675,38.385796)"
         sodipodi:type="arc"
         style="fill:#ccb388;fill-opacity:1;stroke:none"
         id="path4002"
         sodipodi:cx="251.52798"
         sodipodi:cy="324.04221"
         sodipodi:rx="39.39595"
         sodipodi:ry="39.39595"
         d="m 290.92393,324.04221 c 0,21.75778 -17.63816,39.39595 -39.39595,39.39595 -21.75778,0 -39.39595,-17.63817 -39.39595,-39.39595 0,-21.75779 17.63817,-39.39595 39.39595,-39.39595 21.75779,0 39.39595,17.63816 39.39595,39.39595 z" />
      <path
         transform="translate(256.57874,30.304575)"
         sodipodi:type="arc"
         style="fill:#ccb388;fill-opacity:1;stroke:none"
         id="path4006"
         sodipodi:cx="251.52798"
         sodipodi:cy="324.04221"
         sodipodi:rx="39.39595"
         sodipodi:ry="39.39595"
         d="m 290.92393,324.04221 c 0,21.75778 -17.63816,39.39595 -39.39595,39.39595 -21.75778,0 -39.39595,-17.63817 -39.39595,-39.39595 0,-21.75779 17.63817,-39.39595 39.39595,-39.39595 21.75779,0 39.39595,17.63816 39.39595,39.39595 z" />
      <path
         d="m 290.92393,324.04221 c 0,21.75778 -17.63816,39.39595 -39.39595,39.39595 -21.75778,0 -39.39595,-17.63817 -39.39595,-39.39595 0,-21.75779 17.63817,-39.39595 39.39595,-39.39595 21.75779,0 39.39595,17.63816 39.39595,39.39595 z"
         sodipodi:ry="39.39595"
         sodipodi:rx="39.39595"
         sodipodi:cy="324.04221"
         sodipodi:cx="251.52798"
         id="path4008"
         style="fill:#ccb388;fill-opacity:1;stroke:none"
         sodipodi:type="arc"
         transform="translate(260.61935,-18.182747)" />
      <path
         transform="translate(315.16759,-6.0609165)"
         sodipodi:type="arc"
         style="fill:#ccb388;fill-opacity:1;stroke:none"
         id="path4010"
         sodipodi:cx="251.52798"
         sodipodi:cy="324.04221"
         sodipodi:rx="39.39595"
         sodipodi:ry="39.39595"
         d="m 290.92393,324.04221 c 0,21.75778 -17.63816,39.39595 -39.39595,39.39595 -21.75778,0 -39.39595,-17.63817 -39.39595,-39.39595 0,-21.75779 17.63817,-39.39595 39.39595,-39.39595 21.75779,0 39.39595,17.63816 39.39595,39.39595 z" />
      <path
         d="m 290.92393,324.04221 c 0,21.75778 -17.63816,39.39595 -39.39595,39.39595 -21.75778,0 -39.39595,-17.63817 -39.39595,-39.39595 0,-21.75779 17.63817,-39.39595 39.39595,-39.39595 21.75779,0 39.39595,17.63816 39.39595,39.39595 z"
         sodipodi:ry="39.39595"
         sodipodi:rx="39.39595"
         sodipodi:cy="324.04221"
         sodipodi:cx="251.52798"
         id="path4012"
         style="fill:#ccb388;fill-opacity:1;stroke:none"
         sodipodi:type="arc"
         transform="translate(325.26912,52.527931)" />
      <path
         transform="translate(315.16759,111.11678)"
         sodipodi:type="arc"
         style="fill:#ccb388;fill-opacity:1;stroke:none"
         id="path4014"
         sodipodi:cx="251.52798"
         sodipodi:cy="324.04221"
         sodipodi:rx="39.39595"
         sodipodi:ry="39.39595"
         d="m 290.92393,324.04221 c 0,21.75778 -17.63816,39.39595 -39.39595,39.39595 -21.75778,0 -39.39595,-17.63817 -39.39595,-39.39595 0,-21.75779 17.63817,-39.39595 39.39595,-39.39595 21.75779,0 39.39595,17.63816 39.39595,39.39595 z" />
      <path
         d="m 290.92393,324.04221 c 0,21.75778 -17.63816,39.39595 -39.39595,39.39595 -21.75778,0 -39.39595,-17.63817 -39.39595,-39.39595 0,-21.75779 17.63817,-39.39595 39.39595,-39.39595 21.75779,0 39.39595,17.63816 39.39595,39.39595 z"
         sodipodi:ry="39.39595"
         sodipodi:rx="39.39595"
         sodipodi:cy="324.04221"
         sodipodi:cx="251.52798"
         id="path4016"
         style="fill:#ccb388;fill-opacity:1;stroke:none"
         sodipodi:type="arc"
         transform="translate(319.2082,141.42136)" />
      <path
         transform="translate(296.98484,181.82746)"
         sodipodi:type="arc"
         style="fill:#ccb388;fill-opacity:1;stroke:none"
         id="path4018"
         sodipodi:cx="251.52798"
         sodipodi:cy="324.04221"
         sodipodi:rx="39.39595"
         sodipodi:ry="39.39595"
         d="m 290.92393,324.04221 c 0,21.75778 -17.63816,39.39595 -39.39595,39.39595 -21.75778,0 -39.39595,-17.63817 -39.39595,-39.39595 0,-21.75779 17.63817,-39.39595 39.39595,-39.39595 21.75779,0 39.39595,17.63816 39.39595,39.39595 z" />
      <path
         transform="translate(345.47216,141.42136)"
         sodipodi:type="arc"
         style="fill:#ccb388;fill-opacity:1;stroke:none"
         id="path4022"
         sodipodi:cx="251.52798"
         sodipodi:cy="324.04221"
         sodipodi:rx="39.39595"
         sodipodi:ry="39.39595"
         d="m 290.92393,324.04221 c 0,21.75778 -17.63816,39.39595 -39.39595,39.39595 -21.75778,0 -39.39595,-17.63817 -39.39595,-39.39595 0,-21.75779 17.63817,-39.39595 39.39595,-39.39595 21.75779,0 39.39595,17.63816 39.39595,39.39595 z" />
      <path
         d="m 290.92393,324.04221 c 0,21.75778 -17.63816,39.39595 -39.39595,39.39595 -21.75778,0 -39.39595,-17.63817 -39.39595,-39.39595 0,-21.75779 17.63817,-39.39595 39.39595,-39.39595 21.75779,0 39.39595,17.63816 39.39595,39.39595 z"
         sodipodi:ry="39.39595"
         sodipodi:rx="39.39595"
         sodipodi:cy="324.04221"
         sodipodi:cx="251.52798"
         id="path4024"
         style="fill:#ccb388;fill-opacity:1;stroke:none"
         sodipodi:type="arc"
         transform="translate(113.13707,18.18275)" />
      <path
         transform="translate(260.61934,70.710682)"
         sodipodi:type="arc"
         style="fill:#ccb388;fill-opacity:1;stroke:none"
         id="path4026"
         sodipodi:cx="251.52798"
         sodipodi:cy="324.04221"
         sodipodi:rx="39.39595"
         sodipodi:ry="39.39595"
         d="m 290.92393,324.04221 c 0,21.75778 -17.63816,39.39595 -39.39595,39.39595 -21.75778,0 -39.39595,-17.63817 -39.39595,-39.39595 0,-21.75779 17.63817,-39.39595 39.39595,-39.39595 21.75779,0 39.39595,17.63816 39.39595,39.39595 z" />
      <path
         d="m 290.92393,324.04221 c 0,21.75778 -17.63816,39.39595 -39.39595,39.39595 -21.75778,0 -39.39595,-17.63817 -39.39595,-39.39595 0,-21.75779 17.63817,-39.39595 39.39595,-39.39595 21.75779,0 39.39595,17.63816 39.39595,39.39595 z"
         sodipodi:ry="39.39595"
         sodipodi:rx="39.39595"
         sodipodi:cy="324.04221"
         sodipodi:cx="251.52798"
         id="path4028"
         style="fill:#ccb388;fill-opacity:1;stroke:none"
         sodipodi:type="arc"
         transform="translate(216.17263,32.324885)" />
      <path
         transform="translate(16.162426,-30.304573)"
         sodipodi:type="arc"
         style="fill:#e1d6b6;fill-opacity:1;stroke:none"
         id="path4030"
         sodipodi:cx="251.52798"
         sodipodi:cy="324.04221"
         sodipodi:rx="39.39595"
         sodipodi:ry="39.39595"
         d="m 290.92393,324.04221 c 0,21.75778 -17.63816,39.39595 -39.39595,39.39595 -21.75778,0 -39.39595,-17.63817 -39.39595,-39.39595 0,-21.75779 17.63817,-39.39595 39.39595,-39.39595 21.75779,0 39.39595,17.63816 39.39595,39.39595 z" />
      <path
         d="m 290.92393,324.04221 c 0,21.75778 -17.63816,39.39595 -39.39595,39.39595 -21.75778,0 -39.39595,-17.63817 -39.39595,-39.39595 0,-21.75779 17.63817,-39.39595 39.39595,-39.39595 21.75779,0 39.39595,17.63816 39.39595,39.39595 z"
         sodipodi:ry="39.39595"
         sodipodi:rx="39.39595"
         sodipodi:cy="324.04221"
         sodipodi:cx="251.52798"
         id="path4032"
         style="fill:#e1d6b6;fill-opacity:1;stroke:none"
         sodipodi:type="arc"
         transform="translate(62.629443,-38.385793)" />
      <path
         transform="translate(62.629443,-38.385793)"
         sodipodi:type="arc"
         style="fill:#e1d6b6;fill-opacity:1;stroke:none"
         id="path4034"
         sodipodi:cx="251.52798"
         sodipodi:cy="324.04221"
         sodipodi:rx="39.39595"
         sodipodi:ry="39.39595"
         d="m 290.92393,324.04221 c 0,21.75778 -17.63816,39.39595 -39.39595,39.39595 -21.75778,0 -39.39595,-17.63817 -39.39595,-39.39595 0,-21.75779 17.63817,-39.39595 39.39595,-39.39595 21.75779,0 39.39595,17.63816 39.39595,39.39595 z" />
      <path
         d="m 290.92393,324.04221 c 0,21.75778 -17.63816,39.39595 -39.39595,39.39595 -21.75778,0 -39.39595,-17.63817 -39.39595,-39.39595 0,-21.75779 17.63817,-39.39595 39.39595,-39.39595 21.75779,0 39.39595,17.63816 39.39595,39.39595 z"
         sodipodi:ry="39.39595"
         sodipodi:rx="39.39595"
         sodipodi:cy="324.04221"
         sodipodi:cx="251.52798"
         id="path4036"
         style="fill:#e1d6b6;fill-opacity:1;stroke:none"
         sodipodi:type="arc"
         transform="translate(121.21829,-60.609149)" />
      <path
         transform="translate(163.6447,-62.629454)"
         sodipodi:type="arc"
         style="fill:#e1d6b6;fill-opacity:1;stroke:none"
         id="path4038"
         sodipodi:cx="251.52798"
         sodipodi:cy="324.04221"
         sodipodi:rx="39.39595"
         sodipodi:ry="39.39595"
         d="m 290.92393,324.04221 c 0,21.75778 -17.63816,39.39595 -39.39595,39.39595 -21.75778,0 -39.39595,-17.63817 -39.39595,-39.39595 0,-21.75779 17.63817,-39.39595 39.39595,-39.39595 21.75779,0 39.39595,17.63816 39.39595,39.39595 z" />
      <path
         d="m 290.92393,324.04221 c 0,21.75778 -17.63816,39.39595 -39.39595,39.39595 -21.75778,0 -39.39595,-17.63817 -39.39595,-39.39595 0,-21.75779 17.63817,-39.39595 39.39595,-39.39595 21.75779,0 39.39595,17.63816 39.39595,39.39595 z"
         sodipodi:ry="39.39595"
         sodipodi:rx="39.39595"
         sodipodi:cy="324.04221"
         sodipodi:cx="251.52798"
         id="path4040"
         style="fill:#e1d6b6;fill-opacity:1;stroke:none"
         sodipodi:type="arc"
         transform="translate(197.98989,-48.487318)" />
      <path
         transform="translate(44.446703,-62.629454)"
         sodipodi:type="arc"
         style="fill:#e1d6b6;fill-opacity:1;stroke:none"
         id="path4042"
         sodipodi:cx="251.52798"
         sodipodi:cy="324.04221"
         sodipodi:rx="39.39595"
         sodipodi:ry="39.39595"
         d="m 290.92393,324.04221 c 0,21.75778 -17.63816,39.39595 -39.39595,39.39595 -21.75778,0 -39.39595,-17.63817 -39.39595,-39.39595 0,-21.75779 17.63817,-39.39595 39.39595,-39.39595 21.75779,0 39.39595,17.63816 39.39595,39.39595 z" />
      <path
         d="m 290.92393,324.04221 c 0,21.75778 -17.63816,39.39595 -39.39595,39.39595 -21.75778,0 -39.39595,-17.63817 -39.39595,-39.39595 0,-21.75779 17.63817,-39.39595 39.39595,-39.39595 21.75779,0 39.39595,17.63816 39.39595,39.39595 z"
         sodipodi:ry="39.39595"
         sodipodi:rx="39.39595"
         sodipodi:cy="324.04221"
         sodipodi:cx="251.52798"
         id="path4044"
         style="fill:#e1d6b6;fill-opacity:1;stroke:none"
         sodipodi:type="arc"
         transform="translate(74.751279,-74.751285)" />
      <path
         d="m 290.92393,324.04221 c 0,21.75778 -17.63816,39.39595 -39.39595,39.39595 -21.75778,0 -39.39595,-17.63817 -39.39595,-39.39595 0,-21.75779 17.63817,-39.39595 39.39595,-39.39595 21.75779,0 39.39595,17.63816 39.39595,39.39595 z"
         sodipodi:ry="39.39595"
         sodipodi:rx="39.39595"
         sodipodi:cy="324.04221"
         sodipodi:cx="251.52798"
         id="path4066"
         style="fill:#333333;fill-opacity:1;stroke:none"
         sodipodi:type="arc"
         transform="matrix(0.82051283,0,0,1,175.47603,-74.8122)" />
      <path
         transform="translate(125.25891,-80.8122)"
         sodipodi:type="arc"
         style="fill:#e1d6b6;fill-opacity:1;stroke:none"
         id="path4046"
         sodipodi:cx="251.52798"
         sodipodi:cy="324.04221"
         sodipodi:rx="39.39595"
         sodipodi:ry="39.39595"
         d="m 290.92393,324.04221 c 0,21.75778 -17.63816,39.39595 -39.39595,39.39595 -21.75778,0 -39.39595,-17.63817 -39.39595,-39.39595 0,-21.75779 17.63817,-39.39595 39.39595,-39.39595 21.75779,0 39.39595,17.63816 39.39595,39.39595 z" />
      <path
         d="m 290.92393,324.04221 c 0,21.75778 -17.63816,39.39595 -39.39595,39.39595 -21.75778,0 -39.39595,-17.63817 -39.39595,-39.39595 0,-21.75779 17.63817,-39.39595 39.39595,-39.39595 21.75779,0 39.39595,17.63816 39.39595,39.39595 z"
         sodipodi:ry="39.39595"
         sodipodi:rx="39.39595"
         sodipodi:cy="324.04221"
         sodipodi:cx="251.52798"
         id="path4048"
         style="fill:#e1d6b6;fill-opacity:1;stroke:none"
         sodipodi:type="arc"
         transform="translate(224.25386,-58.588844)" />
      <path
         transform="translate(262.63966,-48.487319)"
         sodipodi:type="arc"
         style="fill:#e1d6b6;fill-opacity:1;stroke:none"
         id="path4050"
         sodipodi:cx="251.52798"
         sodipodi:cy="324.04221"
         sodipodi:rx="39.39595"
         sodipodi:ry="39.39595"
         d="m 290.92393,324.04221 c 0,21.75778 -17.63816,39.39595 -39.39595,39.39595 -21.75778,0 -39.39595,-17.63817 -39.39595,-39.39595 0,-21.75779 17.63817,-39.39595 39.39595,-39.39595 21.75779,0 39.39595,17.63816 39.39595,39.39595 z" />
      <path
         transform="translate(303.04577,-16.162438)"
         sodipodi:type="arc"
         style="fill:#e1d6b6;fill-opacity:1;stroke:none"
         id="path4054"
         sodipodi:cx="251.52798"
         sodipodi:cy="324.04221"
         sodipodi:rx="39.39595"
         sodipodi:ry="39.39595"
         d="m 290.92393,324.04221 c 0,21.75778 -17.63816,39.39595 -39.39595,39.39595 -21.75778,0 -39.39595,-17.63817 -39.39595,-39.39595 0,-21.75779 17.63817,-39.39595 39.39595,-39.39595 21.75779,0 39.39595,17.63816 39.39595,39.39595 z" />
      <path
         d="m 290.92393,324.04221 c 0,21.75778 -17.63816,39.39595 -39.39595,39.39595 -21.75778,0 -39.39595,-17.63817 -39.39595,-39.39595 0,-21.75779 17.63817,-39.39595 39.39595,-39.39595 21.75779,0 39.39595,17.63816 39.39595,39.39595 z"
         sodipodi:ry="39.39595"
         sodipodi:rx="39.39595"
         sodipodi:cy="324.04221"
         sodipodi:cx="251.52798"
         id="path4056"
         style="fill:#e1d6b6;fill-opacity:1;stroke:none"
         sodipodi:type="arc"
         transform="translate(327.28943,2.0203078)" />
      <path
         transform="matrix(0.71794873,0,0,1,413.38551,46.46702)"
         sodipodi:type="arc"
         style="fill:#e1d6b6;fill-opacity:1;stroke:none"
         id="path4058"
         sodipodi:cx="251.52798"
         sodipodi:cy="324.04221"
         sodipodi:rx="39.39595"
         sodipodi:ry="39.39595"
         d="m 290.92393,324.04221 c 0,21.75778 -17.63816,39.39595 -39.39595,39.39595 -21.75778,0 -39.39595,-17.63817 -39.39595,-39.39595 0,-21.75779 17.63817,-39.39595 39.39595,-39.39595 21.75779,0 39.39595,17.63816 39.39595,39.39595 z" />
      <path
         transform="matrix(0.51282053,0,0,1,463.0013,94.913732)"
         sodipodi:type="arc"
         style="fill:#333333;fill-opacity:1;stroke:none"
         id="path4064"
         sodipodi:cx="251.52798"
         sodipodi:cy="324.04221"
         sodipodi:rx="39.39595"
         sodipodi:ry="39.39595"
         d="m 290.92393,324.04221 c 0,21.75778 -17.63816,39.39595 -39.39595,39.39595 -21.75778,0 -39.39595,-17.63817 -39.39595,-39.39595 0,-21.75779 17.63817,-39.39595 39.39595,-39.39595 21.75779,0 39.39595,17.63816 39.39595,39.39595 z" />
      <path
         d="m 290.92393,324.04221 c 0,21.75778 -17.63816,39.39595 -39.39595,39.39595 -21.75778,0 -39.39595,-17.63817 -39.39595,-39.39595 0,-21.75779 17.63817,-39.39595 39.39595,-39.39595 21.75779,0 39.39595,17.63816 39.39595,39.39595 z"
         sodipodi:ry="39.39595"
         sodipodi:rx="39.39595"
         sodipodi:cy="324.04221"
         sodipodi:cx="251.52798"
         id="path4060"
         style="fill:#e1d6b6;fill-opacity:1;stroke:none"
         sodipodi:type="arc"
         transform="matrix(0.51282053,0,0,1.0769231,467.0013,62.956952)" />
      <path
         transform="matrix(0.51282053,0,0,1,489.22466,117.1777)"
         sodipodi:type="arc"
         style="fill:#e1d6b6;fill-opacity:1;stroke:none"
         id="path4062"
         sodipodi:cx="251.52798"
         sodipodi:cy="324.04221"
         sodipodi:rx="39.39595"
         sodipodi:ry="39.39595"
         d="m 290.92393,324.04221 c 0,21.75778 -17.63816,39.39595 -39.39595,39.39595 -21.75778,0 -39.39595,-17.63817 -39.39595,-39.39595 0,-21.75779 17.63817,-39.39595 39.39595,-39.39595 21.75779,0 39.39595,17.63816 39.39595,39.39595 z" />
      <path
         d="m 290.92393,324.04221 c 0,21.75778 -17.63816,39.39595 -39.39595,39.39595 -21.75778,0 -39.39595,-17.63817 -39.39595,-39.39595 0,-21.75779 17.63817,-39.39595 39.39595,-39.39595 21.75779,0 39.39595,17.63816 39.39595,39.39595 z"
         sodipodi:ry="39.39595"
         sodipodi:rx="39.39595"
         sodipodi:cy="324.04221"
         sodipodi:cx="251.52798"
         id="path4074"
         style="fill:#fcfcfc;fill-opacity:1;stroke:none"
         sodipodi:type="arc"
         transform="matrix(0.76923078,0,0,0.97435898,368.12113,11.420455)" />
      <path
         transform="translate(299.00515,10.101528)"
         sodipodi:type="arc"
         style="fill:#e1d6b6;fill-opacity:1;stroke:none"
         id="path4072"
         sodipodi:cx="251.52798"
         sodipodi:cy="324.04221"
         sodipodi:rx="39.39595"
         sodipodi:ry="39.39595"
         d="m 290.92393,324.04221 c 0,21.75778 -17.63816,39.39595 -39.39595,39.39595 -21.75778,0 -39.39595,-17.63817 -39.39595,-39.39595 0,-21.75779 17.63817,-39.39595 39.39595,-39.39595 21.75779,0 39.39595,17.63816 39.39595,39.39595 z" />
      <path
         inkscape:connector-curvature="0"
         id="path4537"
         d="m 481.81566,264.49524 c -6.67345,0 -12.82438,2.30044 -17.75,6.1875 1.19339,-0.10884 2.40324,-0.1875 3.625,-0.1875 21.75778,0 39.40625,17.64847 39.40625,39.40625 0,0.0522 2e-4,0.10404 0,0.15625 2.53514,-4.485 4,-9.71077 4,-15.28125 0,-16.73676 -13.10239,-30.28125 -29.28125,-30.28125 z"
         style="fill:#333333;fill-opacity:1;stroke:none" />
      <path
         inkscape:connector-curvature="0"
         id="path4539"
         d="m 449.93576,354.22389 c 6.66647,-0.23568 12.70579,-2.228 17.44854,-5.4013 -1.18717,0.12613 -2.39216,0.22955 -3.61264,0.2727 -21.73503,0.76842 -40.17196,-12.22628 -41.16677,-29.01513 -0.002,-0.0402 -0.005,-0.0803 -0.007,-0.12056 -2.32743,3.55027 -3.55183,7.63434 -3.29713,11.93265 0.76524,12.91451 14.4732,22.90303 30.63514,22.33164 z"
         style="fill:#333333;fill-opacity:1;stroke:none" />
      <path
         style="fill:#fcfcfc;fill-opacity:1;stroke:none"
         d="m 301.81923,278.63738 c -10.40015,0 -19.98598,1.68841 -27.66225,4.54133 1.85982,-0.0799 3.7453,-0.13762 5.64933,-0.13762 33.90812,0 61.41214,12.95312 61.41214,28.92228 0,0.0383 3.1e-4,0.0764 0,0.11468 3.95085,-3.29177 6.23375,-7.12724 6.23375,-11.2157 0,-12.28397 -20.41925,-22.22497 -45.63297,-22.22497 z"
         id="path4833"
         inkscape:connector-curvature="0" />
    </g>
  </g>
</svg>
