<?xml version="1.0" encoding="UTF-8" standalone="no"?>
<!-- Created with Inkscape (http://www.inkscape.org/) -->

<svg
   xmlns:dc="http://purl.org/dc/elements/1.1/"
   xmlns:cc="http://creativecommons.org/ns#"
   xmlns:rdf="http://www.w3.org/1999/02/22-rdf-syntax-ns#"
   xmlns:svg="http://www.w3.org/2000/svg"
   xmlns="http://www.w3.org/2000/svg"
   xmlns:xlink="http://www.w3.org/1999/xlink"
   xmlns:sodipodi="http://sodipodi.sourceforge.net/DTD/sodipodi-0.dtd"
   xmlns:inkscape="http://www.inkscape.org/namespaces/inkscape"
   width="437.85715"
   height="167.17999"
   id="svg4105"
   version="1.1"
   inkscape:version="0.48.2 r9819"
   sodipodi:docname="btn_camera_large.svg"
   inkscape:export-filename="C:\Development\Java\Eclipse\Kepler\VirtualBeer\resources\images\btn_camera_large_off.png"
   inkscape:export-xdpi="90"
   inkscape:export-ydpi="90">
  <defs
     id="defs4107">
    <linearGradient
       inkscape:collect="always"
       id="linearGradient6126">
      <stop
         style="stop-color:#b3b3b3;stop-opacity:1;"
         offset="0"
         id="stop6128" />
      <stop
         style="stop-color:#b3b3b3;stop-opacity:0;"
         offset="1"
         id="stop6130" />
    </linearGradient>
    <filter
       color-interpolation-filters="sRGB"
       inkscape:collect="always"
       id="filter6134"
       x="-0.066108227"
       width="1.1322165"
       y="-0.39370757"
       height="1.7874151">
      <feGaussianBlur
         inkscape:collect="always"
         stdDeviation="4.054663"
         id="feGaussianBlur6136" />
    </filter>
    <linearGradient
       inkscape:collect="always"
       xlink:href="#linearGradient6126"
       id="linearGradient3009"
       gradientUnits="userSpaceOnUse"
       gradientTransform="translate(-81.873226,-670.57185)"
       x1="363.25497"
       y1="989.06329"
       x2="363.25497"
       y2="1011.3153" />
  </defs>
  <sodipodi:namedview
     id="base"
     pagecolor="#ffffff"
     bordercolor="#666666"
     borderopacity="1.0"
     inkscape:pageopacity="0.0"
     inkscape:pageshadow="2"
     inkscape:zoom="1.979899"
     inkscape:cx="152.99382"
     inkscape:cy="19.304273"
     inkscape:document-units="px"
     inkscape:current-layer="layer1"
     showgrid="false"
     fit-margin-top="0"
     fit-margin-left="0"
     fit-margin-right="0"
     fit-margin-bottom="0"
     inkscape:window-width="1600"
     inkscape:window-height="848"
     inkscape:window-x="-8"
     inkscape:window-y="-8"
     inkscape:window-maximized="1" />
  <metadata
     id="metadata4110">
    <rdf:RDF>
      <cc:Work
         rdf:about="">
        <dc:format>image/svg+xml</dc:format>
        <dc:type
           rdf:resource="http://purl.org/dc/dcmitype/StillImage" />
        <dc:title></dc:title>
      </cc:Work>
    </rdf:RDF>
  </metadata>
  <g
     inkscape:label="Layer 1"
     inkscape:groupmode="layer"
     id="layer1"
     transform="translate(-63.928566,-185.91504)">
    <rect
       style="opacity:0.58399999;fill:#b3b3b3;fill-opacity:1;stroke:none"
       id="rect3058"
       width="437.85715"
       height="167.17999"
       x="63.928566"
       y="185.91504"
       ry="20.801626" />
    <path
       style="opacity:0.58399999;fill:#282828;fill-opacity:1;stroke:none"
       d="m 473.7991,189.43262 c -131.21019,1.41094 -262.47145,-0.52711 -393.656246,1.03125 -11.3385,3.12476 -14.3019,17.29087 -12.1875,27.59375 0.77126,40.46545 -1.85163,81.15277 1.53125,121.46875 5.25919,10.8064 19.33801,10.6946 29.65625,9.5625 129.247946,-0.5704 258.595866,1.1532 387.781246,-0.9688 10.89504,-4.1114 12.58203,-17.9951 10.84375,-28.1562 -0.79835,-40.18923 1.87904,-80.56577 -1.5625,-120.625 -3.90722,-8.33638 -14.03364,-10.39113 -22.40625,-9.90625 z"
       id="path3866"
       inkscape:connector-curvature="0" />
    <path
       style="fill:#808080;fill-opacity:1;stroke:none"
       d="m 473.83035,191.43262 c -131.01451,1.36074 -262.08061,-0.42042 -393.093746,0.9375 -10.67622,3.00451 -12.51512,16.08985 -10.77281,25.49996 0.64957,40.212 -1.59513,80.65981 1.27281,120.71879 4.98924,10.1972 18.18911,9.3131 27.74999,8.4948 129.054646,-0.4703 258.173706,0.9771 387.187506,-0.8073 10.33064,-3.9885 10.94197,-16.8692 9.58509,-26.25 -0.67107,-39.89938 1.66075,-80.03872 -1.33509,-119.78125 -3.63478,-7.67521 -12.97489,-9.1867 -20.59375,-8.8125 z"
       id="rect3856"
       inkscape:connector-curvature="0" />
    <path
       style="opacity:0.58399999;fill:#b3b3b3;fill-opacity:1;stroke:none"
       d="m 473.83035,191.45105 c -131.01625,1.28763 -262.08031,-0.43078 -393.093746,0.90625 -10.67573,3.00661 -12.52055,16.08987 -10.77135,25.49995 0.19219,17.7184 -0.005,35.43815 -0.1349,53.1563 C 164.972,239.08399 267.68033,228.10261 367.42409,241.4823 c 43.64285,5.77051 86.58098,15.76 128.40626,29.34375 0.0814,-23.40215 0.47361,-46.94878 -1.25,-70.25 -3.47783,-7.92949 -13.00066,-9.53883 -20.75,-9.125 z"
       id="path3870"
       inkscape:connector-curvature="0" />
    <path
       inkscape:connector-curvature="0"
       style="opacity:0.73245616;fill:url(#linearGradient3009);fill-opacity:1;stroke:none;filter:url(#filter6134)"
       d="m 211.68788,318.27595 c -1.35914,0 -2.449,1.1012 -2.449,2.4603 l 0,19.7961 c 0,1.3592 1.08986,2.4604 2.449,2.4604 l 39.63756,0 c 6.31529,-10.6604 18.01689,-18.2672 30.61253,-18.1975 1.87883,-0.059 3.75918,0.051 5.62363,0.2835 11.21208,1.1584 21.11021,8.3158 26.75762,17.914 l 39.66023,0 c 1.35914,0 2.46034,-1.1012 2.46034,-2.4604 l 0,-19.7961 c 0,-1.3591 -1.1012,-2.4603 -2.46034,-2.4603 l -142.29157,0 z"
       id="rect5742" />
    <rect
       style="fill:#101010;fill-opacity:1;stroke:none"
       id="rect4973"
       width="147.1993"
       height="51.830738"
       x="208.52713"
       y="261.90308"
       ry="5.1460428" />
    <rect
       style="fill:#101010;fill-opacity:1;stroke:none"
       id="rect4973-8"
       width="147.1993"
       height="59.08704"
       x="208.52713"
       y="231.32294"
       ry="9.1041346" />
    <path
       style="fill:#101010;fill-opacity:1;stroke:none"
       d="m 259.63414,209.84685 47.32123,0 c 2.68815,0 3.43172,3.13021 4.85226,5.9097 l 12.76696,24.98043 c 1.42054,2.77949 -14.93107,7.46462 -17.61922,7.46462 l -47.32123,0 c -2.68815,0 -4.85226,-2.63573 -4.85226,-5.9097 l 0,-26.53535 c 0,-3.27397 2.16411,-5.9097 4.85226,-5.9097 z"
       id="rect5548"
       inkscape:connector-curvature="0"
       sodipodi:nodetypes="sssssssss" />
    <path
       sodipodi:nodetypes="sssssssss"
       inkscape:connector-curvature="0"
       id="path5551"
       d="m 304.27792,209.84685 -47.07273,0 c -2.67405,0 -3.4137,3.13021 -4.82679,5.9097 l -12.69991,24.98043 c -1.41309,2.77949 14.85265,7.46462 17.5267,7.46462 l 47.07273,0 c 2.67403,0 4.82678,-2.63573 4.82678,-5.9097 l 0,-26.53535 c 0,-3.27397 -2.15275,-5.9097 -4.82678,-5.9097 z"
       style="fill:#101010;fill-opacity:1;stroke:none" />
    <path
       style="fill:#e63d3d;fill-opacity:1;stroke:none"
       d="m 281.22527,235.57925 c -18.86911,-0.10452 -35.74671,17.02868 -35.48531,35.82744 -0.84164,18.99956 15.89159,36.70154 34.95242,36.90566 18.87647,1.2685 36.85043,-14.76559 37.72144,-33.63977 1.90742,-18.58926 -13.04204,-36.89617 -31.56492,-38.80988 -1.86445,-0.23213 -3.7448,-0.34287 -5.62363,-0.28345 z"
       id="path5569"
       inkscape:connector-curvature="0" />
    <path
       style="fill:#101010;fill-opacity:1;stroke:none"
       d="m 281.70146,241.24824 c -17.28061,-0.1007 -32.50669,16.92587 -30.11366,34.13863 1.72264,16.75421 19.23039,30.32931 35.89603,26.81431 15.30437,-2.71988 27.4206,-18.29188 25.16589,-33.93112 -1.82435,-14.87671 -15.77482,-27.53496 -30.94826,-27.02182 z"
       id="path5575"
       inkscape:connector-curvature="0" />
    <rect
       style="fill:#e63d3d;fill-opacity:1;stroke:none"
       id="rect3017"
       width="69.19545"
       height="9.5964489"
       x="247.54613"
       y="267.1749" />
  </g>
</svg>
