<?xml version="1.0" encoding="UTF-8" standalone="no"?>
<!-- Created with Inkscape (http://www.inkscape.org/) -->

<svg
   xmlns:dc="http://purl.org/dc/elements/1.1/"
   xmlns:cc="http://creativecommons.org/ns#"
   xmlns:rdf="http://www.w3.org/1999/02/22-rdf-syntax-ns#"
   xmlns:svg="http://www.w3.org/2000/svg"
   xmlns="http://www.w3.org/2000/svg"
   xmlns:xlink="http://www.w3.org/1999/xlink"
   xmlns:sodipodi="http://sodipodi.sourceforge.net/DTD/sodipodi-0.dtd"
   xmlns:inkscape="http://www.inkscape.org/namespaces/inkscape"
   width="418.57144"
   height="418.57144"
   id="svg2"
   version="1.1"
   inkscape:version="0.48.2 r9819"
   sodipodi:docname="instructions_4.svg"
   inkscape:export-filename="C:\Development\Java\Eclipse\Kepler\VirtualBeer\resources\images\menu\output\instructions_4.png"
   inkscape:export-xdpi="90"
   inkscape:export-ydpi="90">
  <defs
     id="defs4">
    <clipPath
       clipPathUnits="userSpaceOnUse"
       id="clipPath5655-2">
      <rect
         y="405.93362"
         x="80"
         height="50"
         width="200"
         id="rect5657-2"
         style="opacity:0.3;fill:#ff0000;fill-opacity:1;stroke:none" />
    </clipPath>
    <clipPath
       clipPathUnits="userSpaceOnUse"
       id="clipPath3799">
      <rect
         y="405.93362"
         x="80"
         height="50"
         width="200"
         id="rect3801"
         style="opacity:0.3;fill:#ff0000;fill-opacity:1;stroke:none" />
    </clipPath>
    <clipPath
       clipPathUnits="userSpaceOnUse"
       id="clipPath3803">
      <rect
         y="405.93362"
         x="80"
         height="50"
         width="200"
         id="rect3805"
         style="opacity:0.3;fill:#ff0000;fill-opacity:1;stroke:none" />
    </clipPath>
    <linearGradient
       id="linearGradient5744">
      <stop
         style="stop-color:#b3b3b3;stop-opacity:0.8839286;"
         offset="0"
         id="stop5746" />
      <stop
         id="stop5755"
         offset="0.5"
         style="stop-color:#b3b3b3;stop-opacity:0.2767857;" />
      <stop
         style="stop-color:#b3b3b3;stop-opacity:0.09821428;"
         offset="1"
         id="stop5748" />
    </linearGradient>
    <linearGradient
       inkscape:collect="always"
       xlink:href="#linearGradient5744"
       id="linearGradient3449"
       gradientUnits="userSpaceOnUse"
       gradientTransform="matrix(0.35708676,0,0,-0.1702379,864.70445,419.72751)"
       x1="211.765"
       y1="-289.60638"
       x2="211.765"
       y2="-427.1001" />
  </defs>
  <sodipodi:namedview
     id="base"
     pagecolor="#ffffff"
     bordercolor="#666666"
     borderopacity="1.0"
     inkscape:pageopacity="0.0"
     inkscape:pageshadow="2"
     inkscape:zoom="0.7"
     inkscape:cx="337.3928"
     inkscape:cy="105.0635"
     inkscape:document-units="px"
     inkscape:current-layer="layer1"
     showgrid="false"
     inkscape:window-width="1600"
     inkscape:window-height="848"
     inkscape:window-x="-8"
     inkscape:window-y="-8"
     inkscape:window-maximized="1"
     fit-margin-top="0"
     fit-margin-left="0"
     fit-margin-right="0"
     fit-margin-bottom="0" />
  <metadata
     id="metadata7">
    <rdf:RDF>
      <cc:Work
         rdf:about="">
        <dc:format>image/svg+xml</dc:format>
        <dc:type
           rdf:resource="http://purl.org/dc/dcmitype/StillImage" />
        <dc:title></dc:title>
      </cc:Work>
    </rdf:RDF>
  </metadata>
  <g
     inkscape:label="Layer 1"
     inkscape:groupmode="layer"
     id="layer1"
     transform="translate(-137.14285,-346.64789)">
    <rect
       style="fill:#333333;fill-opacity:1;stroke:none"
       id="rect2985"
       width="418.57144"
       height="418.57144"
       x="137.14285"
       y="346.64789"
       ry="78.571426" />
    <path
       style="fill:#fcfcfc;fill-opacity:1;stroke:none"
       d="m 475.625,360.4375 c -91.24891,1.33842 -182.58563,-1.58809 -273.78125,1.53125 -31.75409,6.47033 -55.18298,39.74025 -50.58997,72.03124 0.53479,88.23228 -1.37747,176.52804 0.99622,264.71876 5.2815,32.44571 38.94287,56.81331 71.62499,52.46122 88.33839,-0.51198 176.72471,1.23444 265.03126,-0.99247 32.95031,-5.10349 57.28824,-39.40434 52.68561,-72.21875 -0.36248,-88.09891 1.31341,-176.24624 -0.90436,-264.3125 -4.56749,-30.39095 -34.43979,-54.27798 -65.0625,-53.21875 z"
       id="rect2987"
       inkscape:connector-curvature="0" />
    <text
       xml:space="preserve"
       style="font-size:40px;font-style:normal;font-variant:normal;font-weight:normal;font-stretch:normal;line-height:125%;letter-spacing:0px;word-spacing:0px;fill:#000000;fill-opacity:1;stroke:none;font-family:Liberation Mono;-inkscape-font-specification:Liberation Mono"
       x="170.57143"
       y="469.02228"
       id="text3103"
       sodipodi:linespacing="125%"><tspan
         sodipodi:role="line"
         x="170.57143"
         y="469.02228"
         id="tspan3409">TAKE THE</tspan><tspan
         sodipodi:role="line"
         x="170.57143"
         y="519.02228"
         id="tspan3471">PICTURE</tspan><tspan
         sodipodi:role="line"
         x="170.57143"
         y="569.02228"
         id="tspan3473">AND</tspan><tspan
         sodipodi:role="line"
         x="170.57143"
         y="619.02228"
         id="tspan3475">STAND</tspan><tspan
         sodipodi:role="line"
         x="170.57143"
         y="669.02228"
         id="tspan3477">BACK!</tspan></text>
    <g
       id="g3440"
       transform="translate(-490,136.53873)">
      <rect
         ry="5.0647936"
         y="417.33972"
         x="864.70447"
         height="51.01239"
         width="144.8752"
         id="rect4973"
         style="fill:#101010;fill-opacity:1;stroke:none" />
      <rect
         ry="8.960392"
         y="387.2424"
         x="864.70447"
         height="58.154133"
         width="144.8752"
         id="rect4973-8"
         style="fill:#101010;fill-opacity:1;stroke:none" />
      <path
         sodipodi:nodetypes="sssssssss"
         inkscape:connector-curvature="0"
         id="rect5548"
         d="m 915.00456,366.10541 46.57408,0 c 2.64572,0 3.37754,3.08078 4.77566,5.8164 l 12.56538,24.58601 c 1.39811,2.73561 -14.69532,7.34676 -17.34104,7.34676 l -46.57408,0 c -2.64571,0 -4.77566,-2.59411 -4.77566,-5.81639 l 0,-26.11638 c 0,-3.22229 2.12995,-5.8164 4.77566,-5.8164 z"
         style="fill:#101010;fill-opacity:1;stroke:none" />
      <path
         style="fill:#101010;fill-opacity:1;stroke:none"
         d="m 958.94347,366.10541 -46.32952,0 c -2.63182,0 -3.3598,3.08078 -4.75057,5.8164 l -12.49941,24.58601 c -1.39077,2.73561 14.61816,7.34676 17.24998,7.34676 l 46.32952,0 c 2.63181,0 4.75056,-2.59411 4.75056,-5.81639 l 0,-26.11638 c 0,-3.22229 -2.11875,-5.8164 -4.75056,-5.8164 z"
         id="path5551"
         inkscape:connector-curvature="0"
         sodipodi:nodetypes="sssssssss" />
      <path
         inkscape:connector-curvature="0"
         id="path5569"
         d="m 936.25479,391.43153 c -18.57119,-0.10288 -35.18232,16.75982 -34.92504,35.26176 -0.82836,18.69959 15.64068,36.12208 34.40056,36.32297 18.57844,1.24847 36.26861,-14.53246 37.12587,-33.10863 1.8773,-18.29577 -12.83613,-36.31363 -31.06655,-38.19713 -1.83502,-0.22846 -3.68568,-0.33745 -5.53484,-0.27897 z"
         style="fill:#ffffff;fill-opacity:1;stroke:none" />
      <path
         inkscape:connector-curvature="0"
         id="path5575"
         d="m 936.72346,397.01101 c -17.00777,-0.0991 -31.99346,16.65863 -29.6382,33.59963 1.69543,16.48968 18.92676,29.85045 35.32927,26.39094 15.06274,-2.67693 26.98767,-18.00307 24.76856,-33.39539 -1.79555,-14.64182 -15.52576,-27.10021 -30.45963,-26.59518 z"
         style="fill:#101010;fill-opacity:1;stroke:none" />
      <path
         id="rect5742"
         d="m 867.11478,468.57815 c -1.33768,0 -2.41033,1.08381 -2.41033,2.4215 l 0,19.48354 c 0,1.33769 1.07265,2.4215 2.41033,2.4215 l 39.01174,0 c 6.21558,-10.49205 17.73242,-17.97881 30.12919,-17.91014 1.84917,-0.0585 3.69983,0.0505 5.53484,0.27898 11.03506,1.1401 20.77692,8.18454 26.33515,17.63116 l 39.0341,0 c 1.3376,0 2.4215,-1.08381 2.4215,-2.4215 l 0,-19.48354 c 0,-1.33769 -1.0839,-2.4215 -2.4215,-2.4215 l -140.04502,0 z"
         style="opacity:0.73245616;fill:url(#linearGradient3449);fill-opacity:1;stroke:none"
         inkscape:connector-curvature="0" />
    </g>
  </g>
</svg>
